<svg id="svg" version="1.1" xmlns="http://www.w3.org/2000/svg" xmlns:xlink="http://www.w3.org/1999/xlink" width="400" height="137.14285714285714" viewBox="0, 0, 400,137.14285714285714"><g id="svgg"><path id="path0" d="M146.000 9.500 C 145.457 10.043,145.591 10.467,147.183 13.258 C 148.017 14.720,148.870 16.217,149.079 16.583 C 149.288 16.950,149.741 17.737,150.087 18.333 C 150.432 18.929,151.054 20.012,151.468 20.739 L 152.221 22.061 151.658 22.530 C 151.349 22.789,151.033 23.000,150.957 23.000 C 150.649 23.000,147.423 25.293,145.586 26.817 C 140.529 31.015,136.092 37.853,134.057 44.583 C 133.269 47.190,132.418 51.759,132.621 52.289 C 132.686 52.458,140.321 52.500,171.184 52.500 L 209.667 52.500 209.667 51.766 C 209.667 50.388,208.791 46.254,207.968 43.750 C 205.275 35.553,199.957 28.596,192.819 23.934 C 191.773 23.251,190.730 22.544,190.501 22.363 L 190.086 22.035 190.482 21.309 C 190.699 20.910,191.082 20.246,191.331 19.833 C 196.770 10.830,197.407 9.167,195.414 9.167 C 194.718 9.167,194.475 9.463,192.892 12.250 C 189.498 18.225,187.966 20.811,187.779 20.882 C 187.668 20.925,186.828 20.666,185.913 20.306 C 176.495 16.604,165.548 16.609,156.333 20.321 C 154.694 20.981,154.277 20.989,154.042 20.364 C 153.984 20.210,153.039 18.546,151.941 16.667 C 150.844 14.787,149.499 12.463,148.954 11.500 C 147.543 9.011,146.914 8.586,146.000 9.500 M273.957 19.793 C 270.773 22.978,268.169 25.660,268.171 25.751 C 268.174 25.842,271.324 29.102,275.171 32.996 L 282.166 40.074 288.208 34.028 L 294.250 27.981 287.167 20.997 C 283.271 17.156,280.008 14.010,279.916 14.006 C 279.824 14.003,277.142 16.607,273.957 19.793 M154.135 35.189 C 155.811 35.593,156.961 37.490,156.523 39.129 C 155.502 42.947,149.983 42.243,150.004 38.297 C 150.015 36.107,151.939 34.659,154.135 35.189 M189.892 35.180 C 190.828 35.440,191.912 36.506,192.167 37.419 C 192.942 40.187,190.051 42.640,187.535 41.350 C 183.963 39.518,186.030 34.108,189.892 35.180 " stroke="none" fill="#4ad78e" fill-rule="evenodd"></path><path id="path1" d="M0.000 68.500 L 0.000 137.000 2.417 137.000 L 4.833 137.000 4.833 68.500 L 4.833 0.000 2.417 0.000 L 0.000 0.000 0.000 68.500 M6.167 68.500 L 6.167 137.000 200.583 137.000 L 395.000 137.000 395.000 68.500 L 395.000 0.000 200.583 0.000 L 6.167 0.000 6.167 68.500 M396.333 68.500 L 396.333 137.000 398.167 137.000 L 400.000 137.000 400.000 68.500 L 400.000 0.000 398.167 0.000 L 396.333 0.000 396.333 68.500 M292.649 15.811 C 299.900 22.995,305.833 28.969,305.833 29.087 C 305.833 29.282,305.085 30.061,301.762 33.330 L 300.664 34.410 297.622 31.372 C 295.949 29.701,294.505 28.333,294.414 28.333 C 294.323 28.333,291.587 30.995,288.335 34.248 L 282.422 40.163 286.643 44.397 C 290.282 48.046,290.841 48.673,290.695 48.940 C 290.602 49.110,289.439 50.325,288.111 51.639 C 285.286 54.434,285.787 54.408,283.303 51.889 C 282.324 50.896,281.142 49.710,280.676 49.254 L 279.828 48.424 260.787 67.462 C 250.315 77.933,241.702 86.500,241.647 86.500 C 241.592 86.500,240.880 86.192,240.065 85.815 C 239.250 85.438,238.034 84.875,237.363 84.565 C 236.692 84.254,236.070 84.000,235.981 84.000 C 235.892 84.000,232.617 87.186,228.702 91.080 C 221.647 98.097,220.780 98.863,219.332 99.370 C 217.611 99.972,217.207 100.038,215.897 99.931 C 215.175 99.872,214.342 99.807,214.047 99.787 C 213.545 99.752,212.676 100.585,200.041 113.208 C 192.633 120.610,186.467 126.667,186.339 126.667 C 186.212 126.667,185.577 126.107,184.929 125.422 C 184.280 124.737,183.206 123.603,182.542 122.902 C 181.877 122.201,181.333 121.542,181.332 121.439 C 181.332 121.335,187.418 115.205,194.858 107.816 C 207.131 95.627,208.373 94.344,208.258 93.982 C 207.964 93.059,207.957 90.232,208.247 89.230 C 208.836 87.188,209.056 86.928,216.725 79.220 L 224.051 71.858 223.828 71.304 C 223.705 70.999,223.169 69.821,222.636 68.685 C 222.103 67.550,221.667 66.514,221.667 66.384 C 221.667 66.255,223.092 64.714,224.833 62.961 C 226.575 61.208,228.000 59.694,228.000 59.597 C 228.000 59.332,233.210 54.167,233.478 54.167 C 233.797 54.167,238.500 49.485,238.500 49.168 C 238.500 48.851,243.512 43.833,243.828 43.833 C 244.117 43.833,248.798 39.208,248.930 38.792 C 249.056 38.393,254.116 33.333,254.389 33.333 C 254.504 33.333,255.753 32.168,257.167 30.745 L 259.736 28.156 256.995 25.412 L 254.254 22.667 256.750 20.167 C 258.123 18.792,259.322 17.667,259.416 17.667 C 259.509 17.667,261.385 19.467,263.584 21.667 L 267.581 25.667 273.624 19.626 C 276.947 16.304,279.667 13.509,279.667 13.416 C 279.667 13.323,278.392 11.973,276.833 10.417 L 274.000 7.587 276.531 5.052 C 278.106 3.475,279.138 2.562,279.263 2.634 C 279.374 2.698,285.398 8.628,292.649 15.811 M147.936 9.212 C 148.130 9.416,149.021 10.858,149.916 12.417 C 151.269 14.772,152.640 17.145,154.318 20.041 C 154.654 20.619,154.590 20.625,156.667 19.815 C 166.169 16.108,176.330 16.261,186.869 20.269 C 187.301 20.433,187.684 20.534,187.720 20.492 C 187.756 20.451,188.217 19.667,188.744 18.750 C 189.272 17.833,190.539 15.640,191.560 13.876 C 192.581 12.111,193.529 10.457,193.667 10.200 C 194.319 8.980,194.895 8.579,195.761 8.741 C 197.388 9.046,197.281 10.794,195.478 13.359 C 195.307 13.602,195.167 13.838,195.167 13.882 C 195.167 13.927,194.562 14.995,193.824 16.256 C 193.085 17.517,192.295 18.894,192.069 19.316 C 191.842 19.738,191.439 20.421,191.174 20.833 C 190.547 21.810,190.550 22.118,191.186 22.466 C 191.472 22.622,192.268 23.125,192.955 23.583 C 193.643 24.042,194.386 24.537,194.608 24.685 C 195.613 25.352,198.914 28.300,200.068 29.561 C 203.329 33.125,205.805 37.090,207.625 41.667 C 208.900 44.870,210.415 51.659,210.061 52.581 C 209.906 52.986,132.419 52.963,132.263 52.558 C 132.205 52.407,132.237 51.675,132.335 50.933 C 133.902 38.967,140.592 28.774,150.989 22.508 C 151.814 22.011,151.819 21.911,151.083 20.761 C 150.762 20.260,150.500 19.814,150.500 19.772 C 150.500 19.729,150.050 18.932,149.500 18.000 C 148.950 17.068,148.500 16.286,148.500 16.261 C 148.500 16.236,147.787 14.998,146.917 13.509 C 145.254 10.666,145.077 10.107,145.601 9.358 C 146.142 8.586,147.273 8.515,147.936 9.212 M152.083 35.685 C 149.659 37.095,149.886 40.304,152.471 41.157 C 155.530 42.167,157.559 37.886,154.946 35.935 C 154.414 35.537,152.608 35.380,152.083 35.685 M187.583 35.812 C 185.906 36.854,185.603 38.981,186.937 40.352 C 189.452 42.937,193.382 39.595,191.307 36.637 C 190.534 35.534,188.689 35.125,187.583 35.812 M196.135 59.671 C 197.802 60.687,197.133 63.175,195.196 63.161 C 194.767 63.158,194.301 63.065,194.159 62.953 C 192.222 61.427,194.046 58.397,196.135 59.671 M170.314 59.727 C 170.451 59.891,170.491 62.290,170.460 68.352 L 170.417 76.750 169.124 76.799 C 167.872 76.846,167.825 76.834,167.669 76.424 C 167.472 75.905,167.472 75.905,166.705 76.406 C 163.239 78.668,158.498 75.543,158.503 71.000 C 158.507 66.609,162.946 63.552,166.485 65.503 C 166.981 65.776,167.412 66.000,167.443 66.000 C 167.474 66.000,167.500 64.627,167.500 62.950 C 167.500 60.800,167.559 59.841,167.700 59.700 C 167.985 59.415,170.073 59.437,170.314 59.727 M209.960 59.638 C 210.125 59.743,210.161 61.580,210.127 68.261 L 210.083 76.750 208.801 76.799 C 207.609 76.844,207.505 76.820,207.320 76.465 C 207.211 76.255,207.100 76.058,207.074 76.027 C 207.048 75.996,206.811 76.130,206.547 76.325 C 203.785 78.367,199.563 76.509,198.423 72.749 C 196.959 67.922,201.987 63.208,206.152 65.503 C 206.648 65.776,207.079 66.000,207.110 66.000 C 207.141 66.000,207.167 64.627,207.167 62.950 C 207.167 60.800,207.226 59.841,207.367 59.700 C 207.591 59.476,209.628 59.427,209.960 59.638 M140.024 65.482 L 140.965 65.959 141.146 65.563 C 141.245 65.345,141.384 65.161,141.455 65.153 C 142.796 65.015,143.726 65.112,143.936 65.412 C 144.176 65.754,144.294 75.975,144.066 76.570 C 143.880 77.054,141.577 76.939,141.243 76.429 L 140.978 76.024 140.435 76.345 C 136.638 78.585,132.172 75.696,132.172 71.000 C 132.172 66.571,136.364 63.625,140.024 65.482 M149.046 65.153 C 149.117 65.161,149.250 65.364,149.342 65.605 C 149.493 66.004,149.534 66.021,149.796 65.792 C 151.469 64.326,154.890 64.838,156.190 66.750 C 156.942 67.856,157.017 68.433,156.965 72.750 L 156.917 76.750 155.734 76.798 C 154.071 76.867,154.128 77.002,154.055 72.796 C 153.979 68.390,153.485 67.382,151.581 67.739 C 149.848 68.065,149.480 68.973,149.354 73.250 L 149.250 76.750 148.083 76.793 C 147.442 76.816,146.807 76.765,146.673 76.678 C 146.352 76.470,146.291 65.399,146.609 65.202 C 146.760 65.109,148.310 65.078,149.046 65.153 M175.571 65.323 C 175.715 65.443,175.833 65.680,175.833 65.850 C 175.833 66.119,175.931 66.091,176.582 65.632 C 177.159 65.225,177.551 65.089,178.297 65.035 C 179.579 64.942,179.695 65.094,179.632 66.776 L 179.583 68.083 178.621 68.025 C 176.353 67.888,175.833 68.858,175.833 73.231 C 175.833 74.922,175.788 76.425,175.732 76.570 C 175.606 76.899,173.352 76.952,173.033 76.633 C 172.713 76.313,172.750 65.396,173.072 65.217 C 173.453 65.005,175.281 65.083,175.571 65.323 M188.750 65.498 C 194.118 68.111,192.936 76.016,187.026 77.030 C 180.146 78.210,177.202 68.546,183.500 65.455 C 184.763 64.835,187.432 64.857,188.750 65.498 M196.505 65.272 C 196.611 65.377,196.655 67.495,196.627 71.094 L 196.583 76.750 195.337 76.800 C 194.308 76.841,194.054 76.799,193.879 76.560 C 193.550 76.110,193.574 65.712,193.905 65.346 C 194.177 65.045,196.220 64.986,196.505 65.272 M137.250 67.867 C 135.576 68.450,134.690 70.653,135.424 72.410 C 136.448 74.859,139.727 74.968,140.920 72.592 C 142.254 69.934,139.926 66.936,137.250 67.867 M163.596 67.904 C 162.009 68.395,161.136 70.428,161.757 72.187 C 162.684 74.815,166.148 75.069,167.311 72.594 C 168.609 69.831,166.397 67.037,163.596 67.904 M203.341 67.884 C 201.860 68.356,200.981 70.116,201.354 71.859 C 201.962 74.694,205.834 75.203,207.014 72.603 C 208.252 69.877,206.033 67.026,203.341 67.884 M184.679 68.125 C 182.967 68.998,182.441 71.904,183.750 73.255 C 184.800 74.340,186.769 74.556,187.881 73.708 C 190.887 71.418,188.021 66.421,184.679 68.125 " stroke="none" fill="#fbfbfb" fill-rule="evenodd"></path><path id="path2" d="M145.845 9.439 C 145.655 9.681,145.500 10.056,145.500 10.274 C 145.500 10.636,148.980 16.909,149.109 16.780 C 149.140 16.749,148.378 15.347,147.416 13.665 C 145.323 10.006,145.225 9.167,146.891 9.167 C 147.583 9.167,147.717 9.317,148.954 11.500 C 149.499 12.463,150.844 14.787,151.941 16.667 C 153.039 18.546,153.984 20.210,154.042 20.364 C 154.260 20.942,154.699 20.986,155.791 20.537 C 156.363 20.301,156.802 20.080,156.767 20.044 C 156.731 20.009,156.267 20.164,155.734 20.389 C 154.596 20.868,154.524 20.853,154.071 20.039 C 152.412 17.051,148.065 9.672,147.790 9.375 C 147.280 8.826,146.303 8.858,145.845 9.439 M194.625 9.208 C 194.475 9.323,193.812 10.354,193.153 11.500 C 192.494 12.646,191.094 15.083,190.041 16.917 C 188.989 18.750,187.970 20.423,187.777 20.634 C 187.505 20.931,187.488 20.994,187.703 20.912 C 187.958 20.814,189.286 18.596,192.892 12.250 C 194.475 9.463,194.718 9.167,195.414 9.167 C 197.407 9.167,196.770 10.830,191.331 19.833 C 191.082 20.246,190.699 20.910,190.482 21.309 L 190.086 22.035 190.501 22.363 C 190.730 22.544,191.773 23.251,192.819 23.934 C 198.408 27.584,202.928 32.676,205.867 38.630 C 206.332 39.572,206.745 40.311,206.783 40.272 C 206.944 40.111,204.459 35.543,203.416 34.083 C 200.028 29.342,195.589 25.181,191.375 22.797 C 190.180 22.120,190.179 22.220,191.388 20.114 C 191.982 19.081,192.633 17.939,192.835 17.576 C 193.037 17.213,193.859 15.792,194.662 14.417 C 197.058 10.311,197.095 10.211,196.488 9.439 C 196.103 8.950,195.122 8.828,194.625 9.208 M287.080 20.795 L 294.243 27.994 293.413 28.872 L 292.583 29.750 293.538 28.843 L 294.493 27.935 294.933 28.343 C 295.175 28.567,296.575 29.938,298.045 31.389 L 300.718 34.028 303.109 31.641 C 304.424 30.328,305.500 29.185,305.500 29.100 C 305.500 28.893,292.532 16.000,292.324 16.000 C 292.235 16.000,291.111 17.050,289.827 18.333 C 288.544 19.617,287.419 20.667,287.327 20.667 C 287.236 20.667,285.582 19.110,283.653 17.208 C 281.724 15.306,280.094 13.715,280.031 13.673 C 279.968 13.631,283.140 16.836,287.080 20.795 M149.202 17.083 C 149.248 17.175,149.859 18.238,150.560 19.446 C 152.177 22.235,152.218 21.996,149.869 23.500 C 144.828 26.728,139.358 32.413,137.522 36.333 C 137.288 36.833,137.295 36.823,138.816 34.526 C 140.547 31.915,143.509 28.541,145.586 26.817 C 147.423 25.293,150.649 23.000,150.957 23.000 C 151.033 23.000,151.349 22.789,151.658 22.530 L 152.221 22.061 151.468 20.739 C 149.688 17.614,149.467 17.242,149.297 17.083 C 149.177 16.972,149.146 16.972,149.202 17.083 M171.833 17.496 C 173.438 17.572,175.377 17.721,176.142 17.828 C 176.908 17.934,177.567 17.988,177.607 17.948 C 177.796 17.760,174.774 17.475,172.000 17.420 L 168.917 17.358 171.833 17.496 M165.754 17.686 C 164.457 17.875,164.149 18.026,165.333 17.892 C 165.837 17.835,166.813 17.734,167.500 17.668 L 168.750 17.547 167.750 17.544 C 167.200 17.542,166.302 17.606,165.754 17.686 M163.000 18.167 C 162.438 18.285,162.435 18.290,162.917 18.292 C 163.192 18.293,163.642 18.237,163.917 18.167 C 164.608 17.991,163.836 17.991,163.000 18.167 M178.417 18.176 C 179.261 18.351,179.943 18.343,179.250 18.167 C 178.975 18.097,178.525 18.039,178.250 18.039 C 177.830 18.038,177.856 18.060,178.417 18.176 M161.250 18.590 C 160.593 18.817,160.592 18.819,161.167 18.722 C 161.847 18.607,162.542 18.353,162.167 18.357 C 162.029 18.358,161.617 18.463,161.250 18.590 M180.583 18.595 C 181.042 18.723,181.492 18.820,181.583 18.813 C 181.865 18.789,180.438 18.359,180.083 18.361 C 179.900 18.362,180.125 18.467,180.583 18.595 M158.527 19.353 C 157.670 19.631,156.998 19.886,157.032 19.921 C 157.066 19.955,157.879 19.729,158.839 19.419 C 159.798 19.109,160.471 18.853,160.333 18.851 C 160.196 18.849,159.383 19.074,158.527 19.353 M183.167 19.323 C 183.946 19.578,185.178 20.022,185.906 20.308 C 186.633 20.594,187.256 20.799,187.291 20.764 C 187.373 20.682,184.195 19.445,183.011 19.099 C 181.530 18.665,181.638 18.821,183.167 19.323 M271.375 29.422 C 273.277 31.346,274.833 32.995,274.833 33.087 C 274.833 33.273,254.435 53.716,254.156 53.809 C 254.059 53.841,251.771 51.666,249.072 48.976 C 246.373 46.285,244.066 44.062,243.944 44.035 C 243.674 43.976,238.667 48.865,238.667 49.188 C 238.667 49.315,240.879 51.630,243.583 54.333 C 246.287 57.036,248.500 59.324,248.500 59.416 C 248.500 59.703,228.265 79.833,227.977 79.833 C 227.827 79.833,227.590 79.590,227.450 79.292 C 227.310 78.994,226.972 78.262,226.699 77.667 C 226.426 77.071,225.742 75.610,225.178 74.420 L 224.153 72.257 216.854 79.587 C 208.196 88.281,208.228 88.236,208.381 91.750 C 208.488 94.182,208.770 95.066,209.930 96.585 C 210.152 96.877,210.333 97.250,210.333 97.416 C 210.333 97.593,204.903 103.115,197.125 110.849 L 183.917 123.980 185.125 125.197 L 186.333 126.414 199.900 112.851 C 212.859 99.895,213.487 99.294,213.941 99.409 C 216.471 100.049,218.976 99.660,220.945 98.320 C 221.388 98.019,224.938 94.597,228.833 90.716 C 234.684 84.887,235.979 83.675,236.277 83.746 C 236.476 83.794,237.488 84.237,238.527 84.732 C 239.567 85.227,240.685 85.742,241.012 85.878 L 241.607 86.125 260.631 67.146 C 271.093 56.707,279.750 48.167,279.867 48.167 C 279.984 48.167,281.318 49.403,282.832 50.914 L 285.583 53.662 288.046 51.212 L 290.509 48.762 286.308 44.558 C 282.493 40.741,282.130 40.329,282.346 40.067 C 282.553 39.816,282.551 39.790,282.333 39.863 C 282.170 39.918,280.839 38.707,278.500 36.374 C 276.529 34.409,273.342 31.254,271.417 29.362 L 267.917 25.924 271.375 29.422 M251.625 36.108 C 250.181 37.542,249.000 38.762,249.000 38.818 C 249.000 39.097,254.981 44.861,255.217 44.808 C 255.522 44.741,260.083 40.301,260.339 39.822 C 260.500 39.522,254.817 33.500,254.374 33.500 C 254.306 33.500,253.069 34.674,251.625 36.108 M257.290 36.540 C 258.872 38.120,260.167 39.532,260.167 39.678 C 260.167 39.940,255.482 44.667,255.222 44.667 C 255.025 44.667,249.333 38.951,249.333 38.754 C 249.333 38.589,254.168 33.667,254.330 33.667 C 254.376 33.667,255.708 34.960,257.290 36.540 M152.250 35.201 C 150.850 35.691,149.991 36.933,150.028 38.417 L 150.049 39.250 150.156 38.333 C 150.374 36.460,151.377 35.444,153.333 35.115 C 153.695 35.055,153.684 35.044,153.250 35.036 C 152.975 35.031,152.525 35.105,152.250 35.201 M187.926 35.249 C 184.369 36.516,185.260 41.676,189.035 41.664 C 192.002 41.655,193.424 38.022,191.246 36.014 C 190.202 35.052,189.156 34.810,187.926 35.249 M154.432 35.424 C 155.267 35.734,155.862 36.354,156.225 37.295 C 157.554 40.736,152.640 43.179,150.677 40.053 C 150.157 39.225,149.987 39.171,150.401 39.967 C 151.776 42.610,155.737 42.068,156.523 39.129 C 156.938 37.576,155.766 35.511,154.333 35.269 C 153.759 35.172,153.761 35.175,154.432 35.424 M190.737 35.792 C 193.732 37.888,191.445 42.469,187.983 41.310 C 185.184 40.373,185.157 36.433,187.943 35.401 C 188.824 35.074,189.934 35.230,190.737 35.792 M136.750 37.667 C 136.518 38.125,136.365 38.500,136.411 38.500 C 136.457 38.500,136.684 38.125,136.917 37.667 C 137.149 37.208,137.301 36.833,137.256 36.833 C 137.210 36.833,136.982 37.208,136.750 37.667 M135.585 40.039 C 134.907 41.522,134.295 43.184,134.392 43.281 C 134.425 43.314,134.622 42.871,134.829 42.296 C 135.036 41.721,135.460 40.694,135.771 40.015 C 136.082 39.336,136.309 38.753,136.276 38.720 C 136.243 38.687,135.932 39.281,135.585 40.039 M206.932 40.750 C 206.997 40.933,207.448 42.246,207.933 43.667 C 208.418 45.087,208.819 46.162,208.824 46.055 C 208.839 45.747,207.351 41.341,207.068 40.855 C 206.927 40.614,206.866 40.567,206.932 40.750 M133.842 44.758 C 133.635 45.453,133.497 46.053,133.534 46.090 C 133.572 46.127,133.770 45.588,133.975 44.892 C 134.180 44.195,134.318 43.596,134.282 43.560 C 134.246 43.524,134.048 44.063,133.842 44.758 M248.933 49.087 L 253.905 54.008 251.332 56.584 L 248.760 59.161 246.696 57.122 C 240.191 50.698,238.833 49.333,238.833 49.216 C 238.833 49.061,243.700 44.167,243.854 44.167 C 243.913 44.167,246.199 46.381,248.933 49.087 M133.259 46.926 C 133.197 47.260,133.179 47.567,133.219 47.608 C 133.260 47.649,133.345 47.409,133.407 47.074 C 133.470 46.740,133.488 46.433,133.447 46.392 C 133.407 46.351,133.322 46.591,133.259 46.926 M208.870 46.583 C 208.871 46.767,208.930 47.142,209.000 47.417 C 209.114 47.866,209.128 47.874,209.130 47.500 C 209.132 47.271,209.073 46.896,209.000 46.667 C 208.895 46.340,208.867 46.322,208.870 46.583 M132.917 48.500 C 132.853 48.879,132.835 49.224,132.878 49.267 C 132.921 49.310,133.006 49.032,133.067 48.650 C 133.128 48.268,133.145 47.923,133.105 47.883 C 133.066 47.843,132.981 48.121,132.917 48.500 M209.167 48.097 C 209.167 48.181,209.279 48.887,209.417 49.667 C 209.554 50.446,209.666 51.402,209.666 51.792 L 209.667 52.500 171.184 52.500 C 140.552 52.500,132.686 52.458,132.623 52.292 C 132.580 52.177,132.613 51.570,132.698 50.944 C 132.782 50.317,132.822 49.717,132.786 49.610 C 132.751 49.504,132.641 50.047,132.542 50.817 C 132.444 51.587,132.402 52.318,132.449 52.442 C 132.522 52.631,138.826 52.661,171.143 52.625 L 209.750 52.583 209.803 51.931 C 209.853 51.321,209.401 48.179,209.240 48.018 C 209.200 47.977,209.167 48.013,209.167 48.097 M230.741 56.887 C 229.325 58.291,228.167 59.530,228.167 59.641 C 228.167 59.871,233.639 65.384,234.125 65.644 C 234.473 65.830,239.500 61.016,239.500 60.496 C 239.500 60.245,233.694 54.333,233.447 54.333 C 233.374 54.333,232.156 55.482,230.741 56.887 M236.500 57.583 L 239.413 60.500 236.917 63.000 C 235.544 64.375,234.344 65.500,234.250 65.500 C 234.157 65.500,232.771 64.190,231.171 62.588 L 228.262 59.676 228.756 59.153 C 230.276 57.547,233.266 54.667,233.414 54.667 C 233.509 54.667,234.898 55.979,236.500 57.583 " stroke="none" fill="#9cc7d9" fill-rule="evenodd"></path><path id="path3" d="M5.167 68.500 C 5.167 129.278,5.195 137.000,5.417 137.000 C 5.638 137.000,5.667 129.278,5.667 68.500 C 5.667 7.722,5.638 0.000,5.417 0.000 C 5.195 0.000,5.167 7.722,5.167 68.500 M395.333 68.500 C 395.333 136.889,395.334 137.000,395.667 137.000 C 395.999 137.000,396.000 136.889,396.000 68.500 C 396.000 0.111,395.999 0.000,395.667 0.000 C 395.334 0.000,395.333 0.111,395.333 68.500 M251.875 36.374 L 249.501 38.748 252.351 41.601 L 255.201 44.454 257.611 42.047 L 260.022 39.640 257.177 36.820 C 255.613 35.269,254.314 34.000,254.291 34.000 C 254.267 34.000,253.180 35.068,251.875 36.374 M241.457 46.775 L 239.053 49.202 243.885 54.023 L 248.717 58.844 249.123 58.464 C 249.346 58.255,250.441 57.182,251.556 56.079 L 253.583 54.075 248.722 49.212 L 243.861 44.348 241.457 46.775 M231.036 57.172 C 229.733 58.459,228.667 59.552,228.667 59.602 C 228.667 59.652,229.936 60.955,231.488 62.498 L 234.310 65.303 236.655 62.971 C 237.945 61.688,239.000 60.578,239.000 60.505 C 239.000 60.397,233.539 54.833,233.434 54.833 C 233.418 54.833,232.338 55.886,231.036 57.172 M194.133 60.341 C 193.234 61.240,193.909 62.833,195.189 62.833 C 195.883 62.833,196.667 62.038,196.667 61.333 C 196.667 60.016,195.080 59.394,194.133 60.341 M167.932 60.292 C 167.882 60.452,167.863 61.858,167.891 63.417 C 167.954 66.942,167.935 66.992,166.825 66.244 C 162.977 63.655,158.235 67.172,159.019 72.035 C 159.647 75.940,163.988 77.995,166.906 75.770 C 167.646 75.205,167.794 75.220,167.963 75.875 C 168.098 76.398,168.136 76.418,169.052 76.467 L 170.000 76.517 170.000 68.258 L 170.000 60.000 169.011 60.000 C 168.215 60.000,168.005 60.057,167.932 60.292 M207.611 60.111 C 207.550 60.172,207.500 61.660,207.500 63.417 C 207.500 66.824,207.465 67.012,206.929 66.517 C 203.701 63.535,198.755 66.246,198.751 71.000 C 198.748 75.587,203.229 78.320,206.573 75.770 C 207.305 75.211,207.398 75.220,207.591 75.875 C 207.748 76.408,207.766 76.417,208.750 76.417 L 209.750 76.417 209.793 68.208 L 209.836 60.000 208.779 60.000 C 208.198 60.000,207.672 60.050,207.611 60.111 M135.930 65.747 C 131.677 67.495,131.353 73.710,135.392 76.078 C 136.828 76.919,139.057 76.808,140.444 75.825 C 141.279 75.233,141.500 75.210,141.500 75.717 C 141.500 76.306,141.819 76.500,142.786 76.500 L 143.671 76.500 143.627 71.042 L 143.583 65.583 142.933 65.530 C 141.861 65.442,141.500 65.601,141.500 66.160 C 141.500 66.841,141.278 66.906,140.678 66.401 C 139.397 65.323,137.572 65.072,135.930 65.747 M151.332 65.489 C 150.661 65.693,149.940 66.106,149.602 66.479 C 149.213 66.909,149.000 66.796,149.000 66.160 C 149.000 65.601,148.639 65.442,147.567 65.530 L 146.917 65.583 146.873 70.955 L 146.829 76.326 147.222 76.425 C 147.438 76.479,147.908 76.499,148.266 76.470 L 148.917 76.417 149.001 73.000 C 149.112 68.456,149.583 67.517,151.822 67.374 C 153.997 67.235,154.402 68.010,154.461 72.417 C 154.520 76.776,154.448 76.528,155.630 76.466 L 156.583 76.417 156.583 72.333 C 156.583 68.436,156.566 68.218,156.214 67.560 C 155.289 65.830,153.168 64.931,151.332 65.489 M184.417 65.566 C 180.995 66.649,179.395 70.344,180.965 73.537 C 183.057 77.789,189.292 77.689,191.300 73.370 C 193.330 69.002,189.017 64.112,184.417 65.566 M173.375 65.607 C 173.215 65.674,173.167 66.913,173.167 70.996 C 173.167 76.959,173.054 76.500,174.514 76.500 L 175.333 76.500 175.333 73.675 C 175.333 69.009,175.856 67.875,178.092 67.683 L 179.250 67.583 179.250 66.583 L 179.250 65.583 178.667 65.528 C 177.759 65.442,176.912 65.779,176.230 66.500 C 175.513 67.256,175.472 67.246,175.344 66.289 L 175.250 65.583 174.417 65.551 C 173.958 65.533,173.490 65.558,173.375 65.607 M194.207 65.693 C 193.904 65.996,193.910 75.813,194.213 76.228 C 194.381 76.457,194.622 76.509,195.338 76.468 L 196.250 76.417 196.250 71.000 L 196.250 65.583 195.332 65.535 C 194.762 65.504,194.336 65.564,194.207 65.693 M139.839 67.708 C 142.599 69.103,142.153 73.824,139.188 74.593 C 136.791 75.214,134.846 73.624,134.837 71.036 C 134.827 68.150,137.367 66.460,139.839 67.708 M165.961 67.591 C 168.966 68.847,168.664 73.778,165.532 74.590 C 163.127 75.214,161.065 73.416,161.201 70.813 C 161.338 68.185,163.645 66.623,165.961 67.591 M187.183 67.523 C 190.184 68.527,190.372 73.193,187.461 74.409 C 184.600 75.604,181.738 72.796,182.760 69.796 C 183.408 67.895,185.336 66.905,187.183 67.523 M205.824 67.662 C 207.296 68.413,208.076 70.198,207.680 71.913 C 206.736 76.006,201.126 75.479,200.867 71.274 C 200.691 68.401,203.401 66.426,205.824 67.662 " stroke="none" fill="#0d2433" fill-rule="evenodd"></path><path id="path4" d="M4.916 68.500 C 4.916 106.221,4.935 121.652,4.958 102.792 C 4.982 83.931,4.982 53.069,4.958 34.208 C 4.935 15.348,4.916 30.779,4.916 68.500 M6.083 68.500 C 6.083 106.221,6.102 121.652,6.125 102.792 C 6.148 83.931,6.148 53.069,6.125 34.208 C 6.102 15.348,6.083 30.779,6.083 68.500 M396.249 68.500 C 396.249 106.221,396.268 121.652,396.292 102.792 C 396.315 83.931,396.315 53.069,396.292 34.208 C 396.268 15.348,396.249 30.779,396.249 68.500 M276.531 5.052 L 274.000 7.587 276.833 10.417 C 278.392 11.973,279.667 13.323,279.667 13.416 C 279.667 13.509,276.947 16.304,273.624 19.626 L 267.581 25.667 263.584 21.667 C 261.385 19.467,259.509 17.667,259.416 17.667 C 259.322 17.667,258.123 18.792,256.750 20.167 L 254.254 22.667 256.995 25.412 L 259.736 28.156 257.167 30.745 C 255.753 32.168,254.505 33.333,254.392 33.333 C 254.279 33.333,254.141 33.407,254.085 33.498 C 254.027 33.591,254.090 33.622,254.228 33.569 C 254.665 33.401,260.552 39.424,260.339 39.822 C 260.063 40.338,255.508 44.745,255.198 44.796 C 255.021 44.825,253.817 43.741,251.953 41.872 L 248.988 38.902 246.703 41.220 C 245.445 42.495,244.192 43.637,243.917 43.757 C 243.466 43.953,241.961 45.333,242.197 45.333 C 242.250 45.333,242.600 45.027,242.974 44.653 C 243.900 43.727,243.581 43.501,249.072 48.976 C 251.771 51.666,254.059 53.841,254.156 53.809 C 254.438 53.715,274.833 33.272,274.833 33.084 C 274.833 32.990,273.258 31.340,271.333 29.417 C 269.408 27.493,267.833 25.844,267.833 25.751 C 267.833 25.499,279.716 13.667,279.969 13.667 C 280.089 13.667,281.772 15.242,283.710 17.167 C 285.648 19.092,287.292 20.667,287.364 20.667 C 287.435 20.667,288.544 19.617,289.827 18.333 C 291.111 17.050,292.235 16.000,292.324 16.000 C 292.532 16.000,305.500 28.893,305.500 29.100 C 305.500 29.185,304.425 30.328,303.111 31.639 L 300.722 34.024 297.665 31.012 C 295.984 29.355,294.565 28.000,294.512 28.000 C 294.459 28.000,291.641 30.775,288.250 34.166 L 282.085 40.333 286.297 44.547 L 290.509 48.762 288.046 51.212 L 285.583 53.662 282.832 50.914 C 281.318 49.403,279.984 48.167,279.867 48.167 C 279.750 48.167,271.093 56.707,260.631 67.146 L 241.607 86.125 241.012 85.878 C 240.685 85.742,239.567 85.227,238.527 84.732 C 237.488 84.237,236.476 83.794,236.277 83.746 C 235.979 83.675,234.684 84.887,228.833 90.716 C 224.938 94.597,221.388 98.019,220.945 98.320 C 218.976 99.660,216.471 100.049,213.941 99.409 C 213.487 99.294,212.859 99.895,199.900 112.851 L 186.333 126.414 185.125 125.197 L 183.917 123.980 197.125 110.849 C 204.903 103.115,210.333 97.593,210.333 97.416 C 210.333 97.250,210.152 96.877,209.930 96.585 C 208.770 95.066,208.488 94.182,208.381 91.750 C 208.228 88.236,208.196 88.281,216.854 79.587 L 224.153 72.257 225.178 74.420 C 225.742 75.610,226.426 77.071,226.699 77.667 C 226.972 78.262,227.310 78.994,227.450 79.292 C 227.590 79.590,227.828 79.833,227.978 79.833 C 228.266 79.833,248.500 59.702,248.500 59.415 C 248.500 59.323,246.287 57.036,243.583 54.333 C 240.879 51.630,238.667 49.313,238.667 49.184 C 238.667 49.055,239.248 48.370,239.958 47.661 C 240.669 46.953,241.435 46.158,241.662 45.895 C 241.888 45.632,241.269 46.203,240.287 47.164 C 239.304 48.125,238.500 49.026,238.500 49.167 C 238.500 49.485,233.797 54.167,233.478 54.167 C 233.210 54.167,228.000 59.332,228.000 59.597 C 228.000 59.694,226.575 61.208,224.833 62.961 C 223.092 64.714,221.667 66.255,221.667 66.384 C 221.667 66.514,222.103 67.550,222.636 68.685 C 223.169 69.821,223.705 70.999,223.828 71.304 L 224.051 71.858 216.725 79.220 C 209.056 86.928,208.836 87.188,208.247 89.230 C 207.957 90.232,207.964 93.059,208.258 93.982 C 208.373 94.344,207.131 95.627,194.858 107.816 C 187.418 115.205,181.332 121.335,181.332 121.439 C 181.333 121.542,181.877 122.201,182.542 122.902 C 183.206 123.603,184.280 124.737,184.929 125.422 C 185.577 126.107,186.212 126.667,186.339 126.667 C 186.467 126.667,192.633 120.610,200.041 113.208 C 212.676 100.585,213.545 99.752,214.047 99.787 C 214.342 99.807,215.175 99.872,215.897 99.931 C 217.207 100.038,217.611 99.972,219.332 99.370 C 220.780 98.863,221.647 98.097,228.702 91.080 C 232.617 87.186,235.892 84.000,235.981 84.000 C 236.070 84.000,236.692 84.254,237.363 84.565 C 238.034 84.875,239.250 85.438,240.065 85.815 C 240.880 86.192,241.592 86.500,241.647 86.500 C 241.702 86.500,250.315 77.933,260.787 67.462 L 279.828 48.424 280.676 49.254 C 281.142 49.710,282.324 50.896,283.303 51.889 C 285.787 54.408,285.286 54.434,288.111 51.639 C 289.439 50.325,290.602 49.110,290.695 48.940 C 290.841 48.673,290.282 48.046,286.643 44.397 L 282.422 40.163 288.335 34.248 C 291.587 30.995,294.323 28.333,294.414 28.333 C 294.505 28.333,295.949 29.701,297.622 31.372 L 300.664 34.410 301.762 33.330 C 305.085 30.061,305.833 29.282,305.833 29.087 C 305.833 28.891,279.729 2.902,279.263 2.634 C 279.138 2.562,278.106 3.475,276.531 5.052 M146.226 8.832 C 145.719 9.037,145.333 9.654,145.333 10.261 C 145.333 10.773,147.776 15.280,147.955 15.100 C 148.000 15.056,147.890 14.809,147.711 14.551 C 145.345 11.149,145.020 9.477,146.613 8.908 C 146.963 8.784,147.100 8.683,146.917 8.685 C 146.733 8.686,146.423 8.753,146.226 8.832 M194.750 8.859 C 194.379 9.080,194.042 9.497,193.667 10.200 C 193.529 10.457,192.559 12.149,191.511 13.959 C 190.463 15.769,189.188 17.980,188.678 18.873 C 187.605 20.749,187.831 20.663,185.928 19.917 C 185.111 19.596,184.362 19.337,184.263 19.342 C 183.991 19.355,187.207 20.648,187.535 20.658 C 187.699 20.663,187.991 20.368,188.227 19.958 C 194.332 9.365,194.343 9.345,194.735 9.071 C 195.261 8.702,195.813 8.788,196.346 9.321 C 196.995 9.970,196.966 10.445,196.193 11.797 C 193.121 17.170,190.930 20.960,190.735 21.239 C 190.398 21.720,190.445 22.113,190.875 22.407 C 191.081 22.548,192.112 23.235,193.167 23.933 C 198.292 27.328,202.213 31.601,205.406 37.268 C 205.916 38.174,206.333 38.849,206.333 38.769 C 206.333 38.294,203.805 34.186,202.280 32.185 C 200.409 29.728,196.609 26.013,194.608 24.685 C 194.386 24.537,193.643 24.042,192.955 23.583 C 192.268 23.125,191.472 22.622,191.186 22.466 C 190.550 22.118,190.547 21.810,191.174 20.833 C 191.439 20.421,191.842 19.738,192.069 19.316 C 192.295 18.894,193.085 17.517,193.824 16.256 C 194.562 14.995,195.167 13.927,195.167 13.882 C 195.167 13.838,195.307 13.602,195.478 13.359 C 196.178 12.363,197.000 10.670,196.999 10.225 C 196.997 9.179,195.618 8.341,194.750 8.859 M147.720 9.208 C 147.924 9.415,148.750 10.727,149.556 12.125 C 150.362 13.523,151.059 14.667,151.104 14.667 C 151.149 14.667,151.155 14.610,151.117 14.542 C 148.879 10.526,147.800 8.833,147.479 8.833 C 147.407 8.833,147.516 9.002,147.720 9.208 M151.167 14.868 C 151.167 15.171,154.511 20.592,154.726 20.635 C 154.866 20.664,155.191 20.565,155.449 20.416 C 155.706 20.267,155.767 20.197,155.583 20.261 C 154.758 20.546,154.584 20.517,154.318 20.050 C 151.872 15.747,151.167 14.587,151.167 14.868 M148.416 16.083 C 149.338 17.765,150.365 19.500,150.437 19.500 C 150.529 19.500,150.355 19.169,149.209 17.167 C 148.259 15.508,147.626 14.643,148.416 16.083 M169.792 17.291 C 170.548 17.322,171.785 17.322,172.542 17.291 C 173.298 17.260,172.679 17.235,171.167 17.235 C 169.654 17.235,169.035 17.260,169.792 17.291 M165.583 17.509 C 165.277 17.593,165.599 17.609,166.417 17.552 C 167.150 17.501,167.781 17.431,167.819 17.396 C 167.949 17.278,166.085 17.372,165.583 17.509 M175.583 17.524 C 178.028 17.834,182.297 18.752,183.830 19.296 C 183.969 19.346,184.032 19.330,183.970 19.261 C 183.583 18.830,176.551 17.313,175.137 17.354 C 174.552 17.372,174.636 17.403,175.583 17.524 M162.750 18.007 C 160.875 18.397,158.599 19.041,157.833 19.399 C 157.512 19.549,157.400 19.628,157.583 19.574 C 157.767 19.521,158.693 19.248,159.642 18.968 C 160.591 18.688,162.204 18.287,163.226 18.077 C 164.247 17.868,164.896 17.696,164.667 17.696 C 164.438 17.695,163.575 17.835,162.750 18.007 M150.500 19.714 C 150.500 19.877,151.512 21.500,151.613 21.500 C 151.660 21.500,151.494 21.144,151.244 20.708 C 150.767 19.879,150.500 19.522,150.500 19.714 M156.417 19.923 C 156.000 20.123,155.986 20.146,156.333 20.062 C 156.806 19.946,157.336 19.676,157.083 19.679 C 156.992 19.681,156.692 19.790,156.417 19.923 M151.667 21.849 C 151.667 22.094,151.544 22.188,150.022 23.119 C 148.548 24.020,145.667 26.174,145.667 26.375 C 145.667 26.478,145.873 26.373,146.125 26.142 C 146.863 25.466,148.467 24.312,150.143 23.253 C 151.620 22.320,152.008 21.953,151.771 21.715 C 151.713 21.658,151.667 21.718,151.667 21.849 M143.976 27.792 C 141.908 29.764,138.616 33.827,137.798 35.417 C 137.510 35.974,137.894 35.489,138.917 34.000 C 140.396 31.847,141.733 30.264,143.736 28.292 C 144.737 27.306,145.505 26.500,145.443 26.500 C 145.381 26.500,144.720 27.081,143.976 27.792 M188.356 35.350 C 185.404 35.914,184.982 39.932,187.743 41.187 C 189.003 41.759,190.477 41.419,191.378 40.349 C 193.258 38.115,191.253 34.797,188.356 35.350 M151.755 35.714 C 151.063 36.105,150.328 37.025,150.341 37.483 C 150.345 37.630,150.492 37.478,150.668 37.145 C 152.093 34.447,155.916 35.141,156.132 38.138 C 156.366 41.364,151.787 42.529,150.647 39.533 C 150.561 39.306,150.450 39.161,150.400 39.211 C 150.243 39.368,150.799 40.275,151.323 40.716 C 154.399 43.304,158.263 38.826,155.340 36.061 C 154.463 35.232,152.877 35.078,151.755 35.714 M190.436 35.845 C 192.121 36.886,192.389 38.921,191.030 40.348 C 188.976 42.506,185.498 40.542,186.208 37.625 C 186.648 35.814,188.871 34.878,190.436 35.845 M137.124 36.534 C 136.549 37.521,135.332 39.964,135.337 40.121 C 135.339 40.192,135.785 39.400,136.328 38.361 C 136.871 37.322,137.405 36.364,137.515 36.232 C 137.624 36.100,137.675 35.953,137.627 35.905 C 137.580 35.857,137.353 36.140,137.124 36.534 M150.205 38.333 C 150.205 38.654,150.240 38.785,150.282 38.625 C 150.323 38.465,150.323 38.202,150.282 38.042 C 150.240 37.881,150.205 38.012,150.205 38.333 M206.341 39.125 C 206.351 39.293,207.150 40.778,207.159 40.646 C 207.171 40.485,206.494 39.000,206.409 39.000 C 206.367 39.000,206.337 39.056,206.341 39.125 M134.699 41.614 C 133.981 43.481,133.610 44.666,133.713 44.768 C 133.762 44.817,133.851 44.634,133.911 44.361 C 133.971 44.087,134.314 43.093,134.673 42.150 C 135.032 41.208,135.297 40.409,135.263 40.374 C 135.228 40.339,134.974 40.897,134.699 41.614 M207.517 41.667 C 207.511 41.712,207.694 42.237,207.925 42.833 C 208.156 43.429,208.299 43.692,208.243 43.417 C 208.147 42.946,207.541 41.486,207.517 41.667 M208.338 44.114 C 208.336 44.223,208.415 44.523,208.516 44.781 C 208.616 45.039,208.873 46.000,209.087 46.917 C 209.301 47.833,209.482 48.426,209.488 48.233 C 209.502 47.814,208.692 44.523,208.487 44.167 C 208.404 44.022,208.341 44.000,208.338 44.114 M133.429 45.429 C 133.367 45.673,133.349 45.905,133.389 45.944 C 133.428 45.983,133.510 45.816,133.571 45.571 C 133.633 45.327,133.651 45.095,133.611 45.056 C 133.572 45.017,133.490 45.184,133.429 45.429 M133.000 47.083 C 132.892 47.602,132.836 48.058,132.875 48.098 C 132.914 48.137,133.040 47.750,133.155 47.238 C 133.269 46.726,133.325 46.270,133.279 46.224 C 133.233 46.178,133.108 46.565,133.000 47.083 M132.583 49.167 C 132.519 49.637,132.503 50.059,132.549 50.105 C 132.595 50.151,132.685 49.803,132.750 49.333 C 132.815 48.863,132.830 48.441,132.784 48.395 C 132.738 48.349,132.648 48.697,132.583 49.167 M209.521 48.750 C 209.517 48.842,209.622 49.554,209.754 50.333 C 209.983 51.684,209.990 51.699,209.912 50.667 C 209.841 49.735,209.542 48.268,209.521 48.750 M132.277 51.328 C 132.220 51.875,132.217 52.437,132.271 52.578 C 132.359 52.806,136.464 52.833,171.167 52.833 C 213.194 52.833,210.202 52.895,210.150 52.028 C 210.141 51.871,210.083 51.932,210.018 52.167 L 209.902 52.583 171.159 52.583 L 132.417 52.583 132.473 51.458 C 132.543 50.067,132.417 49.983,132.277 51.328 M236.540 57.290 C 238.168 58.916,239.500 60.359,239.500 60.496 C 239.500 61.016,234.473 65.830,234.125 65.644 C 233.620 65.374,228.167 59.866,228.167 59.626 C 228.167 59.389,233.199 54.333,233.435 54.333 C 233.515 54.333,234.912 55.664,236.540 57.290 M194.875 59.448 C 195.035 59.490,195.298 59.490,195.458 59.448 C 195.619 59.406,195.487 59.372,195.167 59.372 C 194.846 59.372,194.715 59.406,194.875 59.448 M168.375 59.621 C 168.719 59.657,169.281 59.657,169.625 59.621 C 169.969 59.585,169.688 59.556,169.000 59.556 C 168.313 59.556,168.031 59.585,168.375 59.621 M208.042 59.621 C 208.385 59.657,208.948 59.657,209.292 59.621 C 209.635 59.585,209.354 59.556,208.667 59.556 C 207.979 59.556,207.698 59.585,208.042 59.621 M170.333 68.283 C 170.287 72.977,170.307 76.760,170.377 76.690 C 170.446 76.621,170.484 72.780,170.460 68.157 L 170.417 59.750 170.333 68.283 M167.500 63.250 C 167.500 65.970,167.455 66.198,167.000 65.792 C 166.801 65.614,166.799 65.627,166.987 65.875 C 167.567 66.642,167.667 66.271,167.667 63.333 C 167.667 61.775,167.629 60.500,167.583 60.500 C 167.537 60.500,167.500 61.737,167.500 63.250 M175.296 65.259 C 175.500 65.402,175.667 65.660,175.667 65.833 C 175.667 66.314,175.922 66.365,176.269 65.954 L 176.583 65.583 176.208 65.901 C 175.839 66.214,175.833 66.214,175.833 65.885 C 175.833 65.553,175.359 65.000,175.075 65.000 C 174.993 65.000,175.093 65.117,175.296 65.259 M179.125 65.172 C 179.331 65.255,179.500 65.413,179.500 65.522 C 179.500 65.632,179.548 65.674,179.607 65.615 C 179.770 65.453,179.330 64.999,179.021 65.011 C 178.838 65.018,178.871 65.070,179.125 65.172 M193.741 70.917 C 193.741 73.942,193.764 75.203,193.791 73.719 C 193.819 72.235,193.819 69.760,193.791 68.219 C 193.764 66.678,193.741 67.892,193.741 70.917 M144.075 71.083 C 144.075 74.108,144.097 75.369,144.125 73.886 C 144.152 72.402,144.152 69.927,144.125 68.386 C 144.097 66.844,144.075 68.058,144.075 71.083 M146.403 70.333 C 146.403 72.029,146.427 72.723,146.458 71.875 C 146.488 71.027,146.488 69.640,146.458 68.792 C 146.427 67.944,146.403 68.637,146.403 70.333 M185.792 67.784 C 185.998 67.824,186.335 67.824,186.542 67.784 C 186.748 67.745,186.579 67.712,186.167 67.712 C 185.754 67.712,185.585 67.745,185.792 67.784 M139.833 68.052 C 139.833 68.081,140.077 68.325,140.375 68.594 L 140.917 69.083 140.427 68.542 C 139.971 68.037,139.833 67.923,139.833 68.052 M198.223 71.000 C 198.223 71.688,198.252 71.969,198.288 71.625 C 198.324 71.281,198.324 70.719,198.288 70.375 C 198.252 70.031,198.223 70.313,198.223 71.000 M182.872 71.000 C 182.872 71.321,182.906 71.452,182.948 71.292 C 182.990 71.131,182.990 70.869,182.948 70.708 C 182.906 70.548,182.872 70.679,182.872 71.000 M154.064 72.667 C 154.064 73.813,154.091 74.281,154.123 73.708 C 154.156 73.135,154.156 72.198,154.123 71.625 C 154.091 71.052,154.064 71.521,154.064 72.667 M175.736 73.583 C 175.736 75.233,175.761 75.886,175.791 75.033 C 175.821 74.181,175.821 72.831,175.791 72.033 C 175.760 71.236,175.735 71.933,175.736 73.583 M159.833 75.052 C 159.833 75.081,160.077 75.325,160.375 75.594 L 160.917 76.083 160.427 75.542 C 159.971 75.037,159.833 74.923,159.833 75.052 M137.377 77.120 C 137.631 77.158,138.006 77.157,138.211 77.117 C 138.416 77.078,138.208 77.046,137.750 77.048 C 137.292 77.049,137.124 77.081,137.377 77.120 M163.711 77.120 C 163.964 77.158,164.339 77.157,164.544 77.117 C 164.749 77.078,164.542 77.046,164.083 77.048 C 163.625 77.049,163.457 77.081,163.711 77.120 M185.542 77.119 C 185.794 77.158,186.206 77.158,186.458 77.119 C 186.710 77.081,186.504 77.050,186.000 77.050 C 185.496 77.050,185.290 77.081,185.542 77.119 M203.377 77.120 C 203.631 77.158,204.006 77.157,204.211 77.117 C 204.416 77.078,204.208 77.046,203.750 77.048 C 203.292 77.049,203.124 77.081,203.377 77.120 " stroke="none" fill="#d2ebfa" fill-rule="evenodd"></path><path id="path5" d="M5.083 68.500 C 5.083 106.221,5.102 121.652,5.125 102.792 C 5.148 83.931,5.148 53.069,5.125 34.208 C 5.102 15.348,5.083 30.779,5.083 68.500 M5.916 68.500 C 5.916 106.221,5.935 121.652,5.958 102.792 C 5.982 83.931,5.982 53.069,5.958 34.208 C 5.935 15.348,5.916 30.779,5.916 68.500 M396.083 68.500 C 396.083 106.221,396.102 121.652,396.125 102.792 C 396.148 83.931,396.148 53.069,396.125 34.208 C 396.102 15.348,396.083 30.779,396.083 68.500 M279.853 13.875 C 279.895 13.898,281.539 15.492,283.506 17.417 L 287.083 20.917 283.585 17.375 C 281.661 15.427,280.017 13.833,279.932 13.833 C 279.847 13.833,279.812 13.852,279.853 13.875 M278.740 14.875 L 278.250 15.417 278.792 14.927 C 279.297 14.471,279.410 14.333,279.281 14.333 C 279.252 14.333,279.009 14.577,278.740 14.875 M275.906 17.708 L 275.417 18.250 275.958 17.760 C 276.463 17.304,276.577 17.167,276.448 17.167 C 276.419 17.167,276.175 17.410,275.906 17.708 M271.624 21.960 C 269.631 23.954,268.000 25.661,268.000 25.753 C 268.000 25.845,269.519 27.419,271.375 29.252 L 274.750 32.583 271.458 29.248 C 269.648 27.414,268.167 25.840,268.167 25.750 C 268.167 25.660,269.797 23.954,271.790 21.960 C 273.783 19.965,275.376 18.333,275.330 18.333 C 275.285 18.333,273.617 19.965,271.624 21.960 M168.458 59.787 C 168.756 59.824,169.244 59.824,169.542 59.787 C 169.840 59.750,169.596 59.720,169.000 59.720 C 168.404 59.720,168.160 59.750,168.458 59.787 M207.442 59.792 C 207.400 59.860,207.951 59.917,208.667 59.917 C 209.382 59.917,209.933 59.860,209.891 59.792 C 209.848 59.723,209.298 59.667,208.667 59.667 C 208.036 59.667,207.485 59.723,207.442 59.792 M137.377 65.120 C 137.631 65.158,138.006 65.157,138.211 65.117 C 138.416 65.078,138.208 65.046,137.750 65.048 C 137.292 65.049,137.124 65.081,137.377 65.120 M152.211 65.120 C 152.464 65.158,152.839 65.157,153.044 65.117 C 153.249 65.078,153.042 65.046,152.583 65.048 C 152.125 65.049,151.957 65.081,152.211 65.120 M163.792 65.118 C 163.998 65.157,164.335 65.157,164.542 65.118 C 164.748 65.078,164.579 65.045,164.167 65.045 C 163.754 65.045,163.585 65.078,163.792 65.118 M185.542 65.119 C 185.794 65.158,186.206 65.158,186.458 65.119 C 186.710 65.081,186.504 65.050,186.000 65.050 C 185.496 65.050,185.290 65.081,185.542 65.119 M203.458 65.118 C 203.665 65.157,204.002 65.157,204.208 65.118 C 204.415 65.078,204.246 65.045,203.833 65.045 C 203.421 65.045,203.252 65.078,203.458 65.118 M178.125 65.284 C 178.331 65.324,178.669 65.324,178.875 65.284 C 179.081 65.245,178.912 65.212,178.500 65.212 C 178.088 65.212,177.919 65.245,178.125 65.284 M146.611 65.444 C 146.320 65.736,146.492 76.286,146.792 76.521 C 147.052 76.725,147.060 76.720,146.870 76.477 C 146.705 76.266,146.668 74.983,146.704 70.769 C 146.729 67.779,146.744 65.333,146.736 65.333 C 146.728 65.333,146.672 65.383,146.611 65.444 M193.909 65.543 C 193.865 65.658,193.848 68.152,193.873 71.085 L 193.917 76.417 194.000 70.875 C 194.046 67.827,194.062 65.333,194.036 65.333 C 194.011 65.333,193.953 65.428,193.909 65.543 M143.832 71.083 L 143.750 76.583 142.750 76.680 L 141.750 76.777 142.688 76.805 C 144.071 76.847,144.011 77.122,143.959 70.980 L 143.914 65.583 143.832 71.083 M175.525 66.125 C 175.494 66.787,175.652 66.807,176.179 66.208 L 176.583 65.750 176.138 66.142 L 175.692 66.534 175.621 66.059 C 175.552 65.595,175.549 65.597,175.525 66.125 M149.542 66.060 C 149.335 66.162,149.167 66.306,149.167 66.379 C 149.167 66.539,149.773 66.233,149.917 65.999 C 149.974 65.908,149.996 65.843,149.968 65.854 C 149.940 65.865,149.748 65.958,149.542 66.060 M200.075 66.708 L 199.417 67.417 200.125 66.758 C 200.515 66.395,200.833 66.077,200.833 66.050 C 200.833 65.923,200.688 66.050,200.075 66.708 M172.900 68.500 C 172.900 69.829,172.925 70.373,172.957 69.708 C 172.989 69.044,172.989 67.956,172.957 67.292 C 172.925 66.627,172.900 67.171,172.900 68.500 M181.740 66.875 L 181.250 67.417 181.792 66.927 C 182.090 66.658,182.333 66.414,182.333 66.385 C 182.333 66.257,182.196 66.370,181.740 66.875 M185.794 67.618 C 186.001 67.658,186.301 67.656,186.460 67.615 C 186.620 67.573,186.450 67.540,186.083 67.542 C 185.717 67.544,185.586 67.578,185.794 67.618 M162.240 68.542 L 161.750 69.083 162.292 68.594 C 162.590 68.325,162.833 68.081,162.833 68.052 C 162.833 67.923,162.696 68.037,162.240 68.542 M156.904 72.667 C 156.904 74.637,156.928 75.444,156.958 74.458 C 156.987 73.473,156.987 71.860,156.958 70.875 C 156.928 69.890,156.904 70.696,156.904 72.667 M154.237 72.833 C 154.237 74.712,154.261 75.481,154.291 74.542 C 154.321 73.602,154.321 72.065,154.291 71.125 C 154.261 70.185,154.237 70.954,154.237 72.833 M198.387 71.000 C 198.387 71.596,198.417 71.840,198.454 71.542 C 198.491 71.244,198.491 70.756,198.454 70.458 C 198.417 70.160,198.387 70.404,198.387 71.000 M161.383 71.000 C 161.383 71.504,161.415 71.710,161.453 71.458 C 161.491 71.206,161.491 70.794,161.453 70.542 C 161.415 70.290,161.383 70.496,161.383 71.000 M175.569 73.333 C 175.569 75.029,175.594 75.723,175.624 74.875 C 175.654 74.027,175.654 72.640,175.624 71.792 C 175.594 70.944,175.569 71.637,175.569 73.333 M201.048 71.083 C 201.049 71.542,201.081 71.709,201.120 71.456 C 201.158 71.203,201.157 70.828,201.117 70.623 C 201.078 70.418,201.046 70.625,201.048 71.083 M207.545 71.000 C 207.545 71.412,207.578 71.581,207.618 71.375 C 207.657 71.169,207.657 70.831,207.618 70.625 C 207.578 70.419,207.545 70.587,207.545 71.000 M182.705 71.000 C 182.705 71.321,182.740 71.452,182.782 71.292 C 182.823 71.131,182.823 70.869,182.782 70.708 C 182.740 70.548,182.705 70.679,182.705 71.000 M172.875 72.250 C 172.877 72.617,172.911 72.747,172.951 72.540 C 172.991 72.332,172.990 72.032,172.948 71.873 C 172.906 71.714,172.874 71.883,172.875 72.250 M202.000 73.583 C 202.311 73.904,202.603 74.167,202.649 74.167 C 202.695 74.167,202.478 73.904,202.167 73.583 C 201.856 73.262,201.564 73.000,201.518 73.000 C 201.472 73.000,201.689 73.262,202.000 73.583 M181.333 74.719 C 181.333 74.748,181.577 74.991,181.875 75.260 L 182.417 75.750 181.927 75.208 C 181.471 74.703,181.333 74.590,181.333 74.719 M190.240 75.208 L 189.750 75.750 190.292 75.260 C 190.797 74.804,190.910 74.667,190.781 74.667 C 190.752 74.667,190.509 74.910,190.240 75.208 M170.075 76.490 C 169.988 76.576,169.542 76.675,169.083 76.710 L 168.250 76.773 169.105 76.803 C 169.690 76.824,170.024 76.755,170.167 76.583 C 170.395 76.309,170.327 76.240,170.075 76.490 M174.417 76.667 L 173.417 76.777 174.365 76.805 C 174.887 76.821,175.360 76.758,175.417 76.667 C 175.473 76.575,175.496 76.513,175.468 76.528 C 175.440 76.543,174.967 76.606,174.417 76.667 M147.542 76.786 C 147.794 76.824,148.206 76.824,148.458 76.786 C 148.710 76.748,148.504 76.717,148.000 76.717 C 147.496 76.717,147.290 76.748,147.542 76.786 M155.208 76.786 C 155.460 76.824,155.873 76.824,156.125 76.786 C 156.377 76.748,156.171 76.717,155.667 76.717 C 155.162 76.717,154.956 76.748,155.208 76.786 M194.875 76.786 C 195.127 76.824,195.540 76.824,195.792 76.786 C 196.044 76.748,195.838 76.717,195.333 76.717 C 194.829 76.717,194.623 76.748,194.875 76.786 M208.375 76.786 C 208.627 76.824,209.040 76.824,209.292 76.786 C 209.544 76.748,209.338 76.717,208.833 76.717 C 208.329 76.717,208.123 76.748,208.375 76.786 M203.542 76.948 C 203.702 76.990,203.965 76.990,204.125 76.948 C 204.285 76.906,204.154 76.872,203.833 76.872 C 203.512 76.872,203.381 76.906,203.542 76.948 " stroke="none" fill="#bcbcbc" fill-rule="evenodd"></path><path id="path6" d="M5.749 68.500 C 5.749 106.221,5.768 121.652,5.792 102.792 C 5.815 83.931,5.815 53.069,5.792 34.208 C 5.768 15.348,5.749 30.779,5.749 68.500 M395.249 68.500 C 395.249 106.221,395.268 121.652,395.292 102.792 C 395.315 83.931,395.315 53.069,395.292 34.208 C 395.268 15.348,395.249 30.779,395.249 68.500 M251.790 36.294 L 249.334 38.754 252.292 41.669 L 255.250 44.583 252.375 41.665 L 249.500 38.746 251.896 36.354 L 254.293 33.961 257.159 36.802 L 260.025 39.643 257.659 41.996 C 256.358 43.290,255.326 44.381,255.365 44.421 C 255.405 44.461,256.517 43.405,257.836 42.074 L 260.235 39.655 257.328 36.744 C 255.729 35.143,254.381 33.833,254.333 33.833 C 254.285 33.833,253.141 34.940,251.790 36.294 M244.000 44.370 C 244.000 44.537,253.503 54.053,253.586 53.970 C 253.623 53.932,251.482 51.731,248.827 49.077 C 246.172 46.423,244.000 44.305,244.000 44.370 M242.957 45.090 C 242.705 45.323,242.500 45.562,242.500 45.621 C 242.500 45.681,242.725 45.513,243.000 45.250 C 243.459 44.810,243.572 44.667,243.457 44.667 C 243.433 44.667,243.208 44.857,242.957 45.090 M241.833 46.167 C 241.622 46.350,241.524 46.500,241.615 46.500 C 241.707 46.500,241.917 46.350,242.083 46.167 C 242.249 45.983,242.347 45.833,242.301 45.833 C 242.255 45.833,242.045 45.983,241.833 46.167 M240.499 47.552 C 239.507 48.511,238.906 49.167,239.020 49.167 C 239.059 49.167,239.650 48.604,240.333 47.917 C 241.754 46.487,241.873 46.224,240.499 47.552 M239.968 50.352 C 240.272 50.636,240.553 50.836,240.593 50.795 C 240.681 50.708,239.725 49.833,239.543 49.834 C 239.474 49.835,239.665 50.068,239.968 50.352 M240.917 51.333 C 241.083 51.517,241.296 51.667,241.391 51.667 C 241.485 51.667,241.402 51.517,241.205 51.333 C 241.008 51.150,240.795 51.000,240.731 51.000 C 240.667 51.000,240.751 51.150,240.917 51.333 M241.750 52.167 C 241.916 52.350,242.129 52.500,242.224 52.500 C 242.319 52.500,242.235 52.350,242.038 52.167 C 241.842 51.983,241.628 51.833,241.564 51.833 C 241.501 51.833,241.584 51.983,241.750 52.167 M244.365 54.750 C 244.882 55.254,245.365 55.667,245.439 55.667 C 245.513 55.667,245.151 55.254,244.635 54.750 C 244.118 54.246,243.635 53.833,243.561 53.833 C 243.487 53.833,243.849 54.246,244.365 54.750 M232.152 55.836 C 231.491 56.479,230.980 57.033,231.017 57.067 C 231.053 57.101,231.646 56.575,232.333 55.898 C 233.021 55.222,233.532 54.667,233.469 54.667 C 233.406 54.667,232.813 55.193,232.152 55.836 M246.000 56.243 C 246.000 56.419,247.323 57.732,247.412 57.644 C 247.451 57.605,247.149 57.245,246.741 56.843 C 246.334 56.441,246.000 56.171,246.000 56.243 M250.073 57.542 L 249.583 58.083 250.125 57.594 C 250.630 57.138,250.743 57.000,250.615 57.000 C 250.586 57.000,250.342 57.244,250.073 57.542 M230.458 57.494 C 230.034 57.907,230.100 58.075,230.530 57.675 C 230.729 57.489,230.860 57.308,230.821 57.273 C 230.782 57.238,230.619 57.338,230.458 57.494 M229.458 58.503 C 228.816 59.134,228.884 59.292,229.536 58.683 C 229.830 58.408,230.036 58.153,229.994 58.117 C 229.951 58.082,229.710 58.255,229.458 58.503 M249.094 58.489 C 248.933 58.666,248.697 58.770,248.568 58.721 C 248.439 58.671,248.333 58.669,248.333 58.714 C 248.333 59.001,248.858 58.912,249.178 58.571 C 249.387 58.349,249.519 58.167,249.472 58.167 C 249.424 58.167,249.254 58.312,249.094 58.489 M228.594 59.449 C 228.491 59.717,233.852 65.333,234.210 65.333 C 234.282 65.333,233.064 64.064,231.504 62.513 C 229.498 60.520,228.696 59.616,228.768 59.430 C 228.824 59.285,228.831 59.167,228.786 59.167 C 228.740 59.167,228.654 59.294,228.594 59.449 M167.914 60.004 C 167.851 60.105,167.845 60.234,167.900 60.289 C 167.955 60.344,168.000 60.301,168.000 60.194 C 168.000 60.068,168.349 60.000,168.998 60.000 L 169.997 60.000 170.042 68.208 L 170.088 76.417 170.086 68.167 L 170.083 59.917 169.056 59.867 C 168.431 59.837,167.984 59.891,167.914 60.004 M196.136 60.297 C 196.382 60.552,196.615 60.739,196.653 60.713 C 196.750 60.648,195.973 59.833,195.815 59.833 C 195.745 59.833,195.889 60.042,196.136 60.297 M207.609 59.958 C 207.567 60.027,207.881 60.061,208.308 60.035 C 209.630 59.952,209.795 59.880,208.718 59.856 C 208.151 59.844,207.652 59.890,207.609 59.958 M234.906 64.708 L 234.417 65.250 234.958 64.760 C 235.256 64.491,235.500 64.248,235.500 64.219 C 235.500 64.090,235.362 64.203,234.906 64.708 M137.460 65.285 C 137.668 65.324,137.968 65.323,138.127 65.281 C 138.286 65.239,138.117 65.207,137.750 65.209 C 137.383 65.211,137.253 65.245,137.460 65.285 M152.294 65.285 C 152.501 65.324,152.801 65.323,152.960 65.281 C 153.120 65.239,152.950 65.207,152.583 65.209 C 152.217 65.211,152.086 65.245,152.294 65.285 M163.794 65.285 C 164.001 65.324,164.301 65.323,164.460 65.281 C 164.620 65.239,164.450 65.207,164.083 65.209 C 163.717 65.211,163.586 65.245,163.794 65.285 M185.711 65.286 C 185.964 65.325,186.339 65.324,186.544 65.284 C 186.749 65.244,186.542 65.213,186.083 65.214 C 185.625 65.216,185.457 65.248,185.711 65.286 M203.542 65.282 C 203.702 65.323,203.965 65.323,204.125 65.282 C 204.285 65.240,204.154 65.205,203.833 65.205 C 203.512 65.205,203.381 65.240,203.542 65.282 M177.917 65.418 C 178.298 65.551,179.304 65.587,179.228 65.465 C 179.184 65.393,178.833 65.339,178.448 65.346 C 178.064 65.354,177.825 65.386,177.917 65.418 M143.667 70.967 L 143.750 76.417 143.794 71.094 C 143.818 68.167,143.781 65.714,143.711 65.644 C 143.641 65.574,143.621 67.969,143.667 70.967 M146.742 65.710 C 146.698 65.825,146.682 68.244,146.706 71.085 L 146.750 76.250 146.834 70.875 C 146.879 67.919,146.896 65.500,146.870 65.500 C 146.844 65.500,146.787 65.594,146.742 65.710 M165.681 65.553 C 165.946 65.756,167.000 66.307,167.000 66.242 C 167.000 66.130,165.951 65.501,165.764 65.501 C 165.680 65.500,165.642 65.524,165.681 65.553 M175.325 66.213 C 175.406 66.899,175.410 66.903,175.466 66.354 C 175.498 66.044,175.461 65.727,175.383 65.650 C 175.306 65.572,175.279 65.825,175.325 66.213 M154.583 65.772 C 154.675 65.852,155.050 66.180,155.416 66.500 L 156.083 67.083 155.583 66.527 C 155.308 66.222,154.933 65.894,154.750 65.799 C 154.567 65.704,154.492 65.692,154.583 65.772 M141.322 66.225 L 141.250 66.700 140.750 66.334 L 140.250 65.967 140.731 66.411 C 141.263 66.903,141.571 66.790,141.461 66.144 C 141.399 65.778,141.389 65.784,141.322 66.225 M149.025 66.198 C 148.991 66.803,149.222 66.905,149.603 66.454 L 149.917 66.083 149.554 66.390 C 149.196 66.692,149.191 66.690,149.121 66.223 L 149.050 65.750 149.025 66.198 M134.075 66.875 L 133.417 67.583 134.125 66.925 C 134.515 66.562,134.833 66.243,134.833 66.216 C 134.833 66.090,134.688 66.216,134.075 66.875 M173.074 71.000 C 173.074 73.704,173.097 74.810,173.125 73.458 C 173.153 72.106,173.153 69.894,173.125 68.542 C 173.097 67.190,173.074 68.296,173.074 71.000 M160.406 66.875 L 159.917 67.417 160.458 66.927 C 160.756 66.658,161.000 66.414,161.000 66.385 C 161.000 66.257,160.862 66.370,160.406 66.875 M185.711 67.453 C 185.964 67.491,186.339 67.490,186.544 67.451 C 186.749 67.411,186.542 67.380,186.083 67.381 C 185.625 67.382,185.457 67.415,185.711 67.453 M162.727 67.820 C 162.439 67.996,162.144 68.239,162.073 68.361 C 161.996 68.493,162.074 68.473,162.263 68.313 C 162.439 68.164,162.808 67.923,163.083 67.778 C 163.358 67.632,163.508 67.511,163.417 67.507 C 163.325 67.504,163.014 67.645,162.727 67.820 M202.477 67.843 L 202.083 68.186 202.583 67.894 C 203.241 67.508,203.251 67.500,203.046 67.500 C 202.949 67.500,202.693 67.654,202.477 67.843 M139.917 67.774 C 140.765 68.527,141.078 68.746,140.751 68.360 C 140.569 68.145,140.270 67.892,140.085 67.797 C 139.901 67.703,139.825 67.692,139.917 67.774 M183.870 68.125 C 183.612 68.377,183.554 68.462,183.742 68.314 C 183.930 68.167,184.233 67.963,184.417 67.861 C 184.600 67.760,184.657 67.675,184.544 67.672 C 184.431 67.669,184.128 67.873,183.870 68.125 M135.802 68.292 C 135.316 68.812,134.933 69.489,135.055 69.610 C 135.100 69.655,135.187 69.531,135.249 69.335 C 135.312 69.139,135.589 68.721,135.865 68.406 C 136.463 67.725,136.414 67.636,135.802 68.292 M166.500 67.885 C 166.500 67.914,166.744 68.158,167.042 68.427 L 167.583 68.917 167.094 68.375 C 166.638 67.870,166.500 67.757,166.500 67.885 M176.406 68.375 L 175.917 68.917 176.499 68.417 C 176.820 68.142,177.113 67.898,177.152 67.875 C 177.191 67.852,177.149 67.833,177.059 67.833 C 176.969 67.833,176.675 68.077,176.406 68.375 M206.167 67.885 C 206.167 67.914,206.410 68.158,206.708 68.427 L 207.250 68.917 206.760 68.375 C 206.304 67.870,206.167 67.757,206.167 67.885 M156.666 72.784 C 156.621 74.819,156.641 76.426,156.712 76.355 C 156.782 76.284,156.820 74.619,156.795 72.655 L 156.749 69.083 156.666 72.784 M154.367 72.750 C 154.351 74.583,154.394 76.170,154.461 76.277 C 154.528 76.383,154.563 75.295,154.539 73.860 C 154.467 69.626,154.398 69.182,154.367 72.750 M149.050 70.833 C 149.050 71.337,149.081 71.544,149.119 71.292 C 149.158 71.040,149.158 70.627,149.119 70.375 C 149.081 70.123,149.050 70.329,149.050 70.833 M198.555 71.083 C 198.555 71.725,198.586 71.967,198.622 71.621 C 198.658 71.275,198.657 70.750,198.620 70.455 C 198.583 70.159,198.554 70.442,198.555 71.083 M182.545 71.000 C 182.545 71.412,182.578 71.581,182.618 71.375 C 182.657 71.169,182.657 70.831,182.618 70.625 C 182.578 70.419,182.545 70.587,182.545 71.000 M175.402 73.417 C 175.402 75.067,175.427 75.719,175.458 74.867 C 175.488 74.014,175.488 72.664,175.457 71.867 C 175.427 71.069,175.402 71.767,175.402 73.417 M207.709 71.083 C 207.711 71.450,207.745 71.580,207.785 71.373 C 207.824 71.166,207.823 70.866,207.781 70.706 C 207.739 70.547,207.707 70.717,207.709 71.083 M200.872 71.500 C 200.872 71.821,200.906 71.952,200.948 71.792 C 200.990 71.631,200.990 71.369,200.948 71.208 C 200.906 71.048,200.872 71.179,200.872 71.500 M141.177 72.808 C 140.968 73.314,140.324 73.989,139.750 74.306 C 139.567 74.407,139.508 74.492,139.619 74.495 C 140.103 74.507,141.716 72.660,141.451 72.396 C 141.411 72.356,141.288 72.541,141.177 72.808 M207.123 73.043 L 206.829 73.583 207.164 73.190 C 207.450 72.855,207.603 72.497,207.458 72.501 C 207.435 72.502,207.284 72.745,207.123 73.043 M135.313 73.102 C 135.529 73.539,136.607 74.500,136.881 74.499 C 136.992 74.499,136.852 74.357,136.568 74.185 C 136.285 74.012,135.848 73.619,135.597 73.310 C 135.345 73.002,135.218 72.908,135.313 73.102 M188.511 73.545 C 188.036 74.130,188.018 74.179,188.401 73.833 C 188.800 73.474,189.273 72.827,189.131 72.836 C 189.105 72.838,188.826 73.157,188.511 73.545 M166.824 73.792 L 166.250 74.417 166.875 73.842 C 167.457 73.308,167.577 73.167,167.449 73.167 C 167.422 73.167,167.140 73.448,166.824 73.792 M183.167 73.219 C 183.167 73.248,183.410 73.491,183.708 73.760 L 184.250 74.250 183.760 73.708 C 183.304 73.203,183.167 73.090,183.167 73.219 M199.637 74.625 C 199.817 74.877,200.137 75.233,200.347 75.417 C 200.558 75.600,200.438 75.394,200.080 74.958 C 199.364 74.087,199.126 73.908,199.637 74.625 M185.628 74.621 C 185.928 74.658,186.378 74.657,186.628 74.619 C 186.878 74.581,186.633 74.551,186.083 74.552 C 185.533 74.553,185.328 74.584,185.628 74.621 M160.500 75.250 C 160.811 75.571,161.103 75.833,161.149 75.833 C 161.195 75.833,160.978 75.571,160.667 75.250 C 160.356 74.929,160.064 74.667,160.018 74.667 C 159.972 74.667,160.189 74.929,160.500 75.250 M134.486 75.561 C 134.708 75.834,135.333 76.247,135.333 76.121 C 135.333 76.089,135.090 75.884,134.792 75.666 C 134.456 75.421,134.340 75.381,134.486 75.561 M141.100 75.461 C 141.201 75.528,141.326 75.696,141.379 75.833 C 141.442 76.000,141.478 75.959,141.487 75.708 C 141.496 75.456,141.404 75.334,141.208 75.336 C 141.028 75.337,140.987 75.385,141.100 75.461 M206.583 75.771 C 206.086 76.194,206.144 76.174,207.229 75.544 C 207.461 75.409,207.497 75.339,207.333 75.342 C 207.196 75.344,206.858 75.537,206.583 75.771 M142.458 76.618 C 142.665 76.657,143.002 76.657,143.208 76.618 C 143.415 76.578,143.246 76.545,142.833 76.545 C 142.421 76.545,142.252 76.578,142.458 76.618 M147.794 76.618 C 148.001 76.658,148.301 76.656,148.460 76.615 C 148.620 76.573,148.450 76.540,148.083 76.542 C 147.717 76.544,147.586 76.578,147.794 76.618 M155.292 76.618 C 155.498 76.657,155.835 76.657,156.042 76.618 C 156.248 76.578,156.079 76.545,155.667 76.545 C 155.254 76.545,155.085 76.578,155.292 76.618 M195.127 76.618 C 195.334 76.658,195.634 76.656,195.794 76.615 C 195.953 76.573,195.783 76.540,195.417 76.542 C 195.050 76.544,194.920 76.578,195.127 76.618 M208.627 76.618 C 208.834 76.658,209.134 76.656,209.294 76.615 C 209.453 76.573,209.283 76.540,208.917 76.542 C 208.550 76.544,208.420 76.578,208.627 76.618 M137.377 76.786 C 137.631 76.825,138.006 76.824,138.211 76.784 C 138.416 76.744,138.208 76.713,137.750 76.714 C 137.292 76.716,137.124 76.748,137.377 76.786 M163.792 76.784 C 163.998 76.824,164.335 76.824,164.542 76.784 C 164.748 76.745,164.579 76.712,164.167 76.712 C 163.754 76.712,163.585 76.745,163.792 76.784 M185.711 76.786 C 185.964 76.825,186.339 76.824,186.544 76.784 C 186.749 76.744,186.542 76.713,186.083 76.714 C 185.625 76.716,185.457 76.748,185.711 76.786 M203.458 76.784 C 203.665 76.824,204.002 76.824,204.208 76.784 C 204.415 76.745,204.246 76.712,203.833 76.712 C 203.421 76.712,203.252 76.745,203.458 76.784 " stroke="none" fill="#7c747c" fill-rule="evenodd"></path><path id="path7" d="M395.083 68.500 C 395.083 106.221,395.102 121.652,395.125 102.792 C 395.148 83.931,395.148 53.069,395.125 34.208 C 395.102 15.348,395.083 30.779,395.083 68.500 M273.770 19.646 C 270.008 23.410,267.826 25.711,267.883 25.855 C 267.953 26.031,267.977 26.024,267.987 25.824 C 267.994 25.682,270.693 22.888,273.984 19.616 C 277.275 16.344,279.918 13.667,279.858 13.667 C 279.798 13.667,277.058 16.358,273.770 19.646 M168.127 17.451 C 168.334 17.491,168.634 17.490,168.794 17.448 C 168.953 17.406,168.783 17.374,168.417 17.375 C 168.050 17.377,167.920 17.411,168.127 17.451 M173.708 17.448 C 173.869 17.490,174.131 17.490,174.292 17.448 C 174.452 17.406,174.321 17.372,174.000 17.372 C 173.679 17.372,173.548 17.406,173.708 17.448 M143.324 28.625 L 142.750 29.250 143.375 28.676 C 143.957 28.141,144.077 28.000,143.949 28.000 C 143.922 28.000,143.640 28.281,143.324 28.625 M152.960 35.285 C 153.168 35.324,153.468 35.323,153.627 35.281 C 153.786 35.239,153.617 35.207,153.250 35.209 C 152.883 35.211,152.753 35.245,152.960 35.285 M209.814 52.130 C 209.759 52.461,209.783 52.617,209.876 52.524 C 209.960 52.440,210.000 52.194,209.966 51.978 C 209.914 51.644,209.890 51.667,209.814 52.130 M207.204 63.062 C 207.169 66.027,207.150 66.195,206.875 65.988 C 206.598 65.780,206.598 65.784,206.871 66.083 C 207.321 66.574,207.344 66.410,207.292 63.066 L 207.242 59.917 207.204 63.062 M210.077 68.250 C 210.077 72.833,210.099 74.684,210.125 72.363 C 210.151 70.042,210.151 66.292,210.125 64.030 C 210.099 61.768,210.077 63.667,210.077 68.250 M193.399 60.736 C 193.349 60.866,193.335 61.184,193.368 61.444 C 193.417 61.830,193.443 61.786,193.510 61.208 C 193.595 60.480,193.558 60.323,193.399 60.736 M194.960 63.118 C 195.168 63.158,195.468 63.156,195.627 63.115 C 195.786 63.073,195.617 63.040,195.250 63.042 C 194.883 63.044,194.753 63.078,194.960 63.118 M141.955 65.287 C 142.250 65.324,142.775 65.324,143.121 65.288 C 143.467 65.252,143.225 65.222,142.583 65.221 C 141.942 65.221,141.659 65.250,141.955 65.287 M146.609 65.292 C 146.566 65.360,146.918 65.395,147.391 65.369 C 148.923 65.284,149.110 65.217,147.885 65.192 C 147.226 65.178,146.651 65.223,146.609 65.292 M173.621 65.287 C 173.917 65.324,174.442 65.324,174.788 65.288 C 175.134 65.252,174.892 65.222,174.250 65.221 C 173.608 65.221,173.325 65.250,173.621 65.287 M193.942 65.292 C 193.899 65.360,194.439 65.417,195.141 65.417 L 196.417 65.417 196.503 71.000 L 196.590 76.583 196.628 71.075 C 196.657 66.969,196.616 65.516,196.467 65.367 C 196.248 65.148,194.071 65.084,193.942 65.292 M161.625 65.595 C 160.979 65.946,161.052 66.067,161.708 65.733 C 162.337 65.414,162.448 65.331,162.236 65.340 C 162.152 65.344,161.877 65.459,161.625 65.595 M179.553 66.667 C 179.553 67.262,179.584 67.506,179.621 67.208 C 179.658 66.910,179.658 66.423,179.621 66.125 C 179.584 65.827,179.553 66.071,179.553 66.667 M160.240 66.708 L 159.750 67.250 160.292 66.760 C 160.590 66.491,160.833 66.248,160.833 66.219 C 160.833 66.090,160.696 66.203,160.240 66.708 M178.042 67.948 C 178.202 67.990,178.465 67.990,178.625 67.948 C 178.785 67.906,178.654 67.872,178.333 67.872 C 178.012 67.872,177.881 67.906,178.042 67.948 M206.000 68.052 C 206.000 68.081,206.244 68.325,206.542 68.594 L 207.083 69.083 206.594 68.542 C 206.138 68.037,206.000 67.923,206.000 68.052 M180.053 71.000 C 180.053 71.596,180.084 71.840,180.121 71.542 C 180.158 71.244,180.158 70.756,180.121 70.458 C 180.084 70.160,180.053 70.404,180.053 71.000 M192.053 71.000 C 192.053 71.596,192.084 71.840,192.121 71.542 C 192.158 71.244,192.158 70.756,192.121 70.458 C 192.084 70.160,192.053 70.404,192.053 71.000 M135.048 71.083 C 135.049 71.542,135.081 71.709,135.120 71.456 C 135.158 71.203,135.157 70.828,135.117 70.623 C 135.078 70.418,135.046 70.625,135.048 71.083 M158.545 71.000 C 158.545 71.412,158.578 71.581,158.618 71.375 C 158.657 71.169,158.657 70.831,158.618 70.625 C 158.578 70.419,158.545 70.587,158.545 71.000 M141.372 71.000 C 141.372 71.321,141.406 71.452,141.448 71.292 C 141.490 71.131,141.490 70.869,141.448 70.708 C 141.406 70.548,141.372 70.679,141.372 71.000 M149.236 73.500 C 149.236 75.196,149.261 75.890,149.291 75.042 C 149.321 74.194,149.321 72.806,149.291 71.958 C 149.261 71.110,149.236 71.804,149.236 73.500 M172.888 73.917 C 172.889 74.558,172.919 74.800,172.955 74.455 C 172.991 74.109,172.990 73.584,172.954 73.288 C 172.917 72.992,172.887 73.275,172.888 73.917 M166.740 73.542 L 166.250 74.083 166.792 73.594 C 167.090 73.325,167.333 73.081,167.333 73.052 C 167.333 72.923,167.196 73.037,166.740 73.542 M206.324 73.625 L 205.750 74.250 206.375 73.676 C 206.719 73.360,207.000 73.078,207.000 73.051 C 207.000 72.923,206.859 73.043,206.324 73.625 M137.792 74.451 C 137.998 74.491,138.335 74.491,138.542 74.451 C 138.748 74.411,138.579 74.379,138.167 74.379 C 137.754 74.379,137.585 74.411,137.792 74.451 M164.292 74.451 C 164.498 74.491,164.835 74.491,165.042 74.451 C 165.248 74.411,165.079 74.379,164.667 74.379 C 164.254 74.379,164.085 74.411,164.292 74.451 M203.958 74.451 C 204.165 74.491,204.502 74.491,204.708 74.451 C 204.915 74.411,204.746 74.379,204.333 74.379 C 203.921 74.379,203.752 74.411,203.958 74.451 " stroke="none" fill="#c3c4c4" fill-rule="evenodd"></path><path id="path8" d="M251.748 36.208 L 249.250 38.750 251.792 36.252 L 254.334 33.754 257.292 36.669 L 260.250 39.583 257.335 36.625 C 255.732 34.998,254.381 33.667,254.333 33.667 C 254.285 33.667,253.122 34.810,251.748 36.208 M252.202 41.745 C 253.825 43.390,255.175 44.701,255.202 44.659 C 255.228 44.618,253.900 43.272,252.250 41.669 L 249.250 38.755 252.202 41.745 M258.337 41.583 L 256.591 43.417 258.413 41.631 C 259.415 40.650,260.201 39.825,260.159 39.798 C 260.117 39.771,259.298 40.575,258.337 41.583 M251.000 51.250 C 251.498 51.754,251.943 52.167,251.989 52.167 C 252.034 52.167,251.665 51.754,251.167 51.250 C 250.669 50.746,250.224 50.333,250.178 50.333 C 250.132 50.333,250.502 50.746,251.000 51.250 M252.917 53.167 C 253.275 53.533,253.605 53.833,253.651 53.833 C 253.697 53.833,253.441 53.533,253.083 53.167 C 252.725 52.800,252.395 52.500,252.349 52.500 C 252.303 52.500,252.559 52.800,252.917 53.167 M251.259 56.491 C 249.891 57.861,248.699 58.937,248.610 58.882 C 248.516 58.824,248.503 58.870,248.579 58.993 C 248.682 59.159,253.833 54.307,253.833 54.044 C 253.833 53.926,253.572 54.174,251.259 56.491 M236.332 57.541 L 239.246 60.500 236.834 62.916 C 235.507 64.246,234.344 65.333,234.250 65.333 C 233.893 65.333,228.454 59.709,228.586 59.477 C 228.692 59.292,228.673 59.289,228.488 59.462 C 228.259 59.674,233.818 65.500,234.250 65.500 C 234.344 65.500,235.544 64.375,236.917 62.999 L 239.414 60.499 236.416 57.541 L 233.418 54.583 236.332 57.541 M167.748 60.042 C 167.621 60.394,167.576 66.658,167.701 66.532 C 167.810 66.424,167.976 59.833,167.870 59.833 C 167.844 59.833,167.789 59.927,167.748 60.042 M207.444 59.944 C 207.383 60.006,207.333 61.510,207.333 63.288 C 207.333 65.688,207.284 66.489,207.141 66.401 C 207.017 66.324,206.994 66.355,207.076 66.489 C 207.383 66.985,207.489 66.209,207.535 63.124 C 207.561 61.314,207.577 59.833,207.569 59.833 C 207.562 59.833,207.506 59.883,207.444 59.944 M209.795 68.121 C 209.830 74.655,209.795 76.425,209.628 76.543 C 209.469 76.655,209.478 76.675,209.667 76.624 C 209.940 76.549,210.146 60.246,209.877 59.977 C 209.807 59.907,209.770 63.572,209.795 68.121 M170.244 68.250 C 170.244 72.742,170.265 74.555,170.292 72.280 C 170.318 70.005,170.318 66.330,170.291 64.113 C 170.265 61.897,170.244 63.758,170.244 68.250 M194.875 62.948 C 195.035 62.990,195.298 62.990,195.458 62.948 C 195.619 62.906,195.487 62.872,195.167 62.872 C 194.846 62.872,194.715 62.906,194.875 62.948 M141.750 65.433 C 142.517 65.558,143.796 65.574,143.724 65.458 C 143.682 65.390,143.145 65.344,142.532 65.356 C 141.918 65.369,141.567 65.403,141.750 65.433 M146.776 65.458 C 146.733 65.527,147.048 65.561,147.474 65.535 C 148.797 65.452,148.962 65.380,147.885 65.356 C 147.317 65.344,146.818 65.390,146.776 65.458 M173.111 65.444 C 173.050 65.506,173.001 65.637,173.003 65.736 C 173.004 65.835,173.069 65.816,173.147 65.693 C 173.248 65.533,173.598 65.486,174.379 65.526 C 174.979 65.558,175.434 65.527,175.391 65.458 C 175.295 65.304,173.264 65.291,173.111 65.444 M179.250 66.583 C 179.250 67.253,179.306 67.767,179.375 67.724 C 179.444 67.682,179.500 67.168,179.500 66.583 C 179.500 65.998,179.444 65.485,179.375 65.442 C 179.306 65.400,179.250 65.913,179.250 66.583 M194.109 65.458 C 194.067 65.527,194.381 65.561,194.808 65.535 C 196.130 65.452,196.295 65.380,195.218 65.356 C 194.651 65.344,194.152 65.390,194.109 65.458 M196.408 71.000 C 196.408 73.979,196.430 75.198,196.458 73.708 C 196.486 72.219,196.486 69.781,196.458 68.292 C 196.430 66.802,196.408 68.021,196.408 71.000 M155.000 65.885 C 155.000 65.914,155.244 66.158,155.542 66.427 L 156.083 66.917 155.594 66.375 C 155.138 65.870,155.000 65.757,155.000 65.885 M176.026 66.350 C 175.719 66.629,175.499 66.888,175.537 66.926 C 175.575 66.964,175.859 66.734,176.169 66.414 C 176.861 65.700,176.780 65.664,176.026 66.350 M134.073 66.708 L 133.583 67.250 134.125 66.760 C 134.423 66.491,134.667 66.248,134.667 66.219 C 134.667 66.090,134.529 66.203,134.073 66.708 M181.909 66.875 L 181.250 67.583 181.958 66.925 C 182.617 66.312,182.743 66.167,182.617 66.167 C 182.590 66.167,182.271 66.485,181.909 66.875 M164.375 67.448 C 164.535 67.490,164.798 67.490,164.958 67.448 C 165.119 67.406,164.987 67.372,164.667 67.372 C 164.346 67.372,164.215 67.406,164.375 67.448 M204.042 67.448 C 204.202 67.490,204.465 67.490,204.625 67.448 C 204.785 67.406,204.654 67.372,204.333 67.372 C 204.012 67.372,203.881 67.406,204.042 67.448 M177.960 67.785 C 178.168 67.824,178.468 67.823,178.627 67.781 C 178.786 67.739,178.617 67.707,178.250 67.709 C 177.883 67.711,177.753 67.745,177.960 67.785 M180.220 71.000 C 180.220 71.596,180.250 71.840,180.287 71.542 C 180.324 71.244,180.324 70.756,180.287 70.458 C 180.250 70.160,180.220 70.404,180.220 71.000 M134.883 71.000 C 134.883 71.504,134.915 71.710,134.953 71.458 C 134.991 71.206,134.991 70.794,134.953 70.542 C 134.915 70.290,134.883 70.496,134.883 71.000 M141.545 71.000 C 141.545 71.412,141.578 71.581,141.618 71.375 C 141.657 71.169,141.657 70.831,141.618 70.625 C 141.578 70.419,141.545 70.587,141.545 71.000 M189.379 71.000 C 189.379 71.412,189.411 71.581,189.451 71.375 C 189.491 71.169,189.491 70.831,189.451 70.625 C 189.411 70.419,189.379 70.587,189.379 71.000 M149.037 74.028 C 149.010 75.799,148.943 76.495,148.792 76.556 C 148.628 76.622,148.630 76.643,148.797 76.654 C 149.142 76.675,149.179 76.359,149.125 73.909 L 149.073 71.583 149.037 74.028 M140.406 73.708 L 139.917 74.250 140.458 73.760 C 140.756 73.491,141.000 73.248,141.000 73.219 C 141.000 73.090,140.862 73.203,140.406 73.708 M161.833 73.219 C 161.833 73.248,162.077 73.491,162.375 73.760 L 162.917 74.250 162.427 73.708 C 161.971 73.203,161.833 73.090,161.833 73.219 M201.500 73.219 C 201.500 73.248,201.744 73.491,202.042 73.760 L 202.583 74.250 202.094 73.708 C 201.638 73.203,201.500 73.090,201.500 73.219 M137.960 74.618 C 138.168 74.658,138.468 74.656,138.627 74.615 C 138.786 74.573,138.617 74.540,138.250 74.542 C 137.883 74.544,137.753 74.578,137.960 74.618 M164.294 74.618 C 164.501 74.658,164.801 74.656,164.960 74.615 C 165.120 74.573,164.950 74.540,164.583 74.542 C 164.217 74.544,164.086 74.578,164.294 74.618 M203.960 74.618 C 204.168 74.658,204.468 74.656,204.627 74.615 C 204.786 74.573,204.617 74.540,204.250 74.542 C 203.883 74.544,203.753 74.578,203.960 74.618 M133.667 74.885 C 133.667 74.914,133.910 75.158,134.208 75.427 L 134.750 75.917 134.260 75.375 C 133.804 74.870,133.667 74.757,133.667 74.885 M167.410 75.511 C 167.327 75.645,167.350 75.676,167.474 75.599 C 167.597 75.523,167.674 75.620,167.686 75.865 C 167.702 76.175,167.721 76.189,167.785 75.941 C 167.885 75.553,167.591 75.217,167.410 75.511 M140.567 75.875 C 140.253 76.247,140.253 76.248,140.583 75.980 C 140.767 75.832,141.029 75.669,141.167 75.618 C 141.379 75.540,141.376 75.524,141.151 75.513 C 141.005 75.506,140.742 75.669,140.567 75.875 M141.338 76.105 C 141.331 76.380,141.788 76.712,142.036 76.612 C 142.174 76.557,142.149 76.522,141.967 76.513 C 141.811 76.506,141.607 76.369,141.513 76.208 C 141.420 76.048,141.341 76.001,141.338 76.105 " stroke="none" fill="#7c7c7c" fill-rule="evenodd"></path></g></svg>