<svg xmlns="http://www.w3.org/2000/svg" version="1.1" xmlns:xlink="http://www.w3.org/1999/xlink" xmlns:svgjs="http://svgjs.dev/svgjs" width="2000" height="1510" viewBox="0 0 2000 1510"><g transform="matrix(1,0,0,1,-1.4971087700325825,0.6113360323886354)"><svg viewBox="0 0 327 247" data-background-color="#ffffff" preserveAspectRatio="xMidYMid meet" height="1510" width="2000" xmlns="http://www.w3.org/2000/svg" xmlns:xlink="http://www.w3.org/1999/xlink"><g id="tight-bounds" transform="matrix(1,0,0,1,0.2447772839003335,-0.09999999999999432)"><svg viewBox="0 0 326.51044543219933 247.2" height="247.2" width="326.51044543219933"><g><svg viewBox="0 0 395.52 299.44691009985684" height="247.2" width="326.51044543219933"><g transform="matrix(1,0,0,1,0,185.07020365594275)"><svg viewBox="0 0 395.52 114.37670644391407" height="114.37670644391407" width="395.52"><g id="textblocktransform"><svg viewBox="0 0 395.52 114.37670644391407" height="114.37670644391407" width="395.52" id="textblock"><g><svg viewBox="0 0 395.52 114.37670644391407" height="114.37670644391407" width="395.52"><g transform="matrix(1,0,0,1,0,0)"><svg width="395.52" viewBox="3.25 -35.01 122.74 35.5" height="114.37670644391407" data-palette-color="#01ff70"><path d="M17.26-28L10.25-28 10.25-13.99 17.26-13.99Q18.7-13.99 19.97-14.54 21.24-15.09 22.19-16.04 23.14-16.99 23.69-18.27 24.24-19.56 24.24-21L24.24-21Q24.24-22.44 23.69-23.72 23.14-25 22.19-25.95 21.24-26.9 19.97-27.45 18.7-28 17.26-28L17.26-28ZM10.25-7.01L10.25 0 3.25 0 3.25-35.01 17.26-35.01Q19.19-35.01 20.97-34.51 22.75-34.01 24.3-33.09 25.85-32.18 27.14-30.9 28.42-29.61 29.33-28.05 30.25-26.49 30.75-24.71 31.25-22.92 31.25-21L31.25-21Q31.25-19.19 30.8-17.48 30.35-15.77 29.5-14.23 28.66-12.7 27.44-11.4 26.22-10.11 24.71-9.16L24.71-9.16 28.59 0 21.14 0 18.09-7.06 10.25-7.01ZM60.1-13.31L60.1-13.31Q60.1-10.38 59.06-7.85 58.01-5.32 56.2-3.48 54.39-1.64 51.96-0.57 49.53 0.49 46.75 0.49L46.75 0.49Q43.99 0.49 41.56-0.57 39.13-1.64 37.31-3.48 35.5-5.32 34.45-7.85 33.4-10.38 33.4-13.31L33.4-13.31Q33.4-16.28 34.45-18.82 35.5-21.36 37.31-23.21 39.13-25.05 41.56-26.1 43.99-27.15 46.75-27.15L46.75-27.15Q49.53-27.15 51.96-26.16 54.39-25.17 56.2-23.35 58.01-21.53 59.06-18.98 60.1-16.43 60.1-13.31ZM53.39-13.31L53.39-13.31Q53.39-14.92 52.87-16.22 52.34-17.53 51.44-18.47 50.53-19.41 49.33-19.91 48.12-20.41 46.75-20.41L46.75-20.41Q45.38-20.41 44.17-19.91 42.97-19.41 42.08-18.47 41.18-17.53 40.67-16.22 40.16-14.92 40.16-13.31L40.16-13.31Q40.16-11.79 40.67-10.5 41.18-9.2 42.08-8.25 42.97-7.3 44.17-6.75 45.38-6.2 46.75-6.2L46.75-6.2Q48.12-6.2 49.33-6.71 50.53-7.23 51.44-8.15 52.34-9.08 52.87-10.4 53.39-11.72 53.39-13.31ZM89.06-13.31L89.06-13.31Q89.06-10.38 88.01-7.85 86.96-5.32 85.15-3.48 83.34-1.64 80.92-0.57 78.49 0.49 75.7 0.49L75.7 0.49Q72.94 0.49 70.52-0.57 68.09-1.64 66.27-3.48 64.45-5.32 63.4-7.85 62.35-10.38 62.35-13.31L62.35-13.31Q62.35-16.28 63.4-18.82 64.45-21.36 66.27-23.21 68.09-25.05 70.52-26.1 72.94-27.15 75.7-27.15L75.7-27.15Q78.49-27.15 80.92-26.16 83.34-25.17 85.15-23.35 86.96-21.53 88.01-18.98 89.06-16.43 89.06-13.31ZM82.34-13.31L82.34-13.31Q82.34-14.92 81.82-16.22 81.29-17.53 80.39-18.47 79.49-19.41 78.28-19.91 77.07-20.41 75.7-20.41L75.7-20.41Q74.34-20.41 73.13-19.91 71.92-19.41 71.03-18.47 70.14-17.53 69.62-16.22 69.11-14.92 69.11-13.31L69.11-13.31Q69.11-11.79 69.62-10.5 70.14-9.2 71.03-8.25 71.92-7.3 73.13-6.75 74.34-6.2 75.7-6.2L75.7-6.2Q77.07-6.2 78.28-6.71 79.49-7.23 80.39-8.15 81.29-9.08 81.82-10.4 82.34-11.72 82.34-13.31ZM125.99-16.6L125.99 0 119.35 0 119.35-16.6Q119.35-17.29 119.1-17.9 118.84-18.51 118.38-18.97 117.91-19.43 117.3-19.69 116.69-19.95 116.01-19.95L116.01-19.95Q115.32-19.95 114.73-19.69 114.13-19.43 113.68-18.97 113.22-18.51 112.97-17.9 112.71-17.29 112.71-16.6L112.71-16.6 112.71 0 106.05 0 106.05-16.6Q106.05-17.29 105.79-17.9 105.53-18.51 105.07-18.97 104.61-19.43 104-19.69 103.39-19.95 102.7-19.95L102.7-19.95Q102.02-19.95 101.42-19.69 100.82-19.43 100.37-18.97 99.92-18.51 99.66-17.9 99.41-17.29 99.41-16.6L99.41-16.6 99.41 0 92.74 0 92.74-26.15 94.35-26.15 96.16-24.15Q97.55-25.32 99.22-25.96 100.9-26.61 102.7-26.61L102.7-26.61Q104.53-26.61 106.28-25.93 108.02-25.24 109.34-23.56L109.34-23.56Q109.95-24.39 110.73-24.98 111.52-25.56 112.38-25.93 113.25-26.29 114.18-26.45 115.1-26.61 116.01-26.61L116.01-26.61Q118.08-26.61 119.9-25.83 121.72-25.05 123.08-23.69 124.43-22.34 125.21-20.51 125.99-18.68 125.99-16.6L125.99-16.6Z" opacity="1" transform="matrix(1,0,0,1,0,0)" fill="#01ff70" class="wordmark-text-0" data-fill-palette-color="primary" id="text-0"></path></svg></g></svg></g></svg></g></svg></g><g transform="matrix(1,0,0,1,118.72569584725537,0)"><svg viewBox="0 0 158.06860830548925 158.06860830548928" height="158.06860830548928" width="158.06860830548925"><g><svg></svg></g><g id="icon-0"><svg viewBox="0 0 158.06860830548925 158.06860830548928" height="158.06860830548928" width="158.06860830548925"><g><path transform="scale(1.58069,1.58069)" d="M30 100c-16.569 0-30-13.431-30-30v-40c0-16.569 13.431-30 30-30h40c16.569 0 30 13.431 30 30v40c0 16.569-13.431 30-30 30z" fill="#01ff70" fill-rule="nonzero" stroke="none" stroke-width="1" stroke-linecap="butt" stroke-linejoin="miter" stroke-miterlimit="10" stroke-dasharray="" stroke-dashoffset="0" font-family="none" font-weight="none" font-size="none" text-anchor="none" style="mix-blend-mode: normal" data-fill-palette-color="accent"></path></g><g transform="matrix(1,0,0,1,42.316419112683604,31.613721661097856)"><svg viewBox="0 0 73.43577008012204 94.84116498329357" height="94.84116498329357" width="73.43577008012204"><g><svg xmlns="http://www.w3.org/2000/svg" xmlns:xlink="http://www.w3.org/1999/xlink" version="1.1" x="0" y="0" viewBox="44.163932022500205 27.988846723780462 111.272423666605 143.70661980587056" style="enable-background:new 0 0 200 200;" xml:space="preserve" height="94.84116498329357" width="73.43577008012204" class="icon-dxe-0" data-fill-palette-color="quaternary" id="dxe-0"><g fill="#ffffff" data-fill-palette-color="quaternary"><path d="M92.8 63.8C92.3 65.7 90.4 67.1 88.5 67.3 86.7 67.5 84.6 66.8 83.5 65.1 82.6 63.7 82.5 62.1 83 60.6S84.9 57.9 86.3 57.6 89.3 57.5 90.4 58.4C91.6 59.3 92.1 60.7 92 62 92 62.2 91.9 62.2 91.7 62.2 92.6 62.2 93.1 62.9 92.8 63.8" fill="#ffffff" data-fill-palette-color="quaternary"></path><path d="M118.6 63.8C118.1 65.7 116.2 67.1 114.3 67.3 112.5 67.5 110.4 66.8 109.3 65.1 108.4 63.7 108.3 62 108.8 60.6 109.3 59.1 110.7 57.9 112.1 57.6S115.1 57.5 116.3 58.4C117.4 59.2 118 60.5 118 61.7V62.1C118 62.2 118 62.2 117.9 62.3L117.8 62.4C118.4 62.2 118.9 62.9 118.6 63.8" fill="#ffffff" data-fill-palette-color="quaternary"></path><path d="M95.8 102.1H99.4C101.4 102.1 103.3 101.2 105.3 99.5 105.4 99.4 105.4 97.8 105.3 97.7 103.4 96 101.4 95.1 99.4 95.1H95.8C95.5 95.1 95.3 96.7 95.3 98.6S95.5 102.1 95.8 102.1" fill="#ffffff" data-fill-palette-color="quaternary"></path><path d="M95.8 113.6H99.4C101.4 113.6 103.3 112.7 105.3 111 105.4 110.9 105.4 109.3 105.3 109.2 103.4 107.5 101.4 106.6 99.4 106.6H95.8C95.5 106.6 95.3 108.2 95.3 110.1S95.5 113.6 95.8 113.6" fill="#ffffff" data-fill-palette-color="quaternary"></path><path d="M152.2 80.5C150.3 80.5 148.7 82.9 148.7 85.9V104.5C148.6 107.2 148.2 110.1 147.4 112.7 147 113.9 146.5 115.2 145.9 115.9 145.8 116.1 145.7 116.2 145.6 116.3 145.6 116.4 145.5 116.4 145.5 116.4S145.4 116.3 145.4 116.4C145.3 116.3 145.2 116.3 145 116.2 144.7 116 144.4 115.7 144 115.4 143.7 115.1 143.3 114.7 143 114.3 142.8 114.1 142.7 114 142.7 113.9 142.6 113.8 142.5 113.7 142.5 113.5 141.9 112.1 141.6 109.7 141.5 107.4 141.4 105 141.5 102.6 141.7 100 141.8 97.5 142 95 142 92.1 141.9 90.6 141.7 89.3 141.6 88.1 141.4 86.8 141.3 85.6 141.2 84.5V82.9C141.2 82.4 141.3 82.1 141.4 81.6 141.7 80.7 142.2 79.8 142.9 79 144.2 77.4 146.2 75.9 148 75.7 148.8 75.6 149.5 75.9 150.1 76.7S151 78.6 151.2 79.8C151.3 80.2 151.8 80.5 152.2 80.5S153 80.2 153.1 79.4C153.1 78.1 153 76.6 152.3 75.2 152 74.5 151.4 73.8 150.7 73.3S149.1 72.5 148.2 72.4C146.5 72.3 145 72.7 143.7 73.4 142.6 74 141.5 74.7 140.6 75.5 140.5 74.7 140.4 73.9 140.2 73.2 138.7 65.5 135.2 58.1 129.9 52.1 126.7 48.5 122.9 45.4 118.6 43.1 118.8 43.1 119 43 119 42.9L121.2 37.9C122.4 35.2 122.8 32.1 122.3 28.7 122.3 28.5 120.8 27.9 120.7 28 117.9 30 115.9 32.4 114.7 35.1L112.5 40.1C112.5 40.2 112.5 40.4 112.7 40.6 111.6 40.2 110.6 39.9 109.5 39.7 102.6 38.1 95.3 38.6 88.7 40.6 88.8 40.4 88.9 40.3 88.9 40.2L86.7 35.2C85.5 32.5 83.5 30.1 80.8 28.1 80.6 28 79.2 28.6 79.1 28.8 78.7 32.2 79.1 35.3 80.3 38L82.5 43C80 44.1 77.6 45.5 75.3 47.1 72 49.5 69 52.4 66.7 55.9 63.9 60.1 62.1 64.9 61.2 69.6 61 70.6 60.9 71.5 60.8 72.4 60.3 72 59.8 71.6 59.1 71.2 58.6 71 58 70.7 57.5 70.6 56.9 70.5 56.3 70.4 55.7 70.4 55.1 70.5 54.5 70.5 53.9 70.7 53.4 70.9 52.8 71.1 52.3 71.3 50.4 72.4 49.3 73.9 48.5 75.3S47.1 78 46.6 79.4C45.5 82.7 45 85.9 44.6 89.1S44.1 95.5 44.2 98.7 44.6 105.1 45.2 108.3C45.5 109.9 45.9 111.5 46.4 113.2 46.9 114.8 47.7 116.5 48.7 118.2 49 118.6 49.2 119 49.6 119.3 50 119.7 50.3 119.9 50.7 120.2 51.6 120.7 52.4 121 53.2 121 54 121.1 54.7 120.8 55.1 120.4 55.5 120.1 55.7 119.6 55.7 119.1 55.7 119.5 56 119.9 56.9 119.8 58.4 119.5 59.6 118.4 60.5 117.4 61.4 116.3 62.1 115.1 62.7 113.9 63 113.2 63.3 112.4 63.6 111.6 64.3 115.7 64.6 119.8 65.2 124.2 65.8 128.8 66.6 133.5 68.5 138.1 70.3 142.8 73.6 147.3 78 150.2 80.2 151.7 82.6 152.8 85.1 153.4 85.6 153.6 86.2 153.7 86.7 153.8 86.9 156.3 87.4 158.9 88.2 161.4 89.2 164.5 90.7 167.7 93.8 170.3 95.3 171.5 97.2 171.9 98.6 171.6 99.9 171.2 100.6 170.3 100.6 169.4 100.6 169.8 100.9 170.2 101.6 170.2 102.9 170.2 104.3 169.7 105.4 169 106.6 168.3 107.6 167.4 108.4 166.3 110.1 164.2 111.1 161.9 112 159.5 112.8 157 113.3 154.3 113.6 151.7 116.6 151.1 119.5 149.8 121.9 147.9 125 145.5 127.4 142.4 129.2 139.1 132.8 132.4 134.7 125 136.1 117.7 136.2 117.4 136.2 117 136.3 116.7 136.4 116.8 136.4 116.9 136.5 117.1 136.8 117.5 137.1 118 137.3 118.2 137.7 118.8 138.3 119.4 138.8 119.9 139.4 120.5 140 121 140.7 121.6 141.1 121.9 141.5 122.1 142 122.4 142.6 122.6 143 122.9 143.7 123 145.2 123.4 146.8 123.2 148.2 122.5 148.9 122.2 149.6 121.7 150 121.2 150.5 120.8 150.9 120.3 151.2 119.9 152.5 118.1 153.2 116.4 153.7 114.7 154.7 111.3 155.3 108.1 155.4 104.5V85.9C155.7 82.9 154.1 80.5 152.2 80.5M61.3 105.9C61.1 108.3 60.7 110.7 60.1 112.9 59.8 114 59.4 115.1 58.8 116S57.6 117.7 56.7 118.1C56.5 118.1 56.3 118.3 56.2 118.4S56.1 118.5 56.1 118.6C56 118.7 56 118.8 56 118.9V118.3C56 118.1 55.9 117.9 55.9 117.7 55.8 117.2 55.7 116.9 55.7 116.4 55.6 115.7 55.5 115.1 54.9 114.2 53.7 112.4 52.9 109.6 52.4 106.9 51.9 104.1 51.6 101.3 51.5 98.4S51.5 92.6 51.8 89.8 52.6 84.1 53.5 81.6C53.9 80.6 54.3 79.6 54.7 78.8S55.7 77.5 55.9 77.3C56.1 77.2 56.1 77.2 56.3 77.3S57.1 77.9 57.6 78.6C58.6 80.1 59.4 82.3 59.9 84.5 60.2 85.8 60.5 87.2 60.7 88.6 60.9 91.1 61.2 93.5 61.5 95.9 61.6 99.4 61.6 102.7 61.3 105.9M72.6 59.8C76.2 54.4 81.9 50.5 88.4 48.1 94.8 45.6 101.6 44.9 108.1 46.3S120.6 51.4 125.2 56.4 133 67.7 134.6 74.4C134.8 75.5 135 76.5 135.2 77.6 121.4 76.1 107.6 75.3 93.8 75.3H67.6C68.2 69.6 69.6 64.2 72.6 59.8M135.6 84.6C135.6 86.4 135.4 88 135.1 89.8 134.8 91.7 134.7 93.5 134.5 95.4 133.8 102.8 133.4 110.1 132.4 117.3S129.9 131.6 126.9 138C125.4 141.2 123.3 144.1 120.7 146.4S114.8 150.1 111.3 150.6C109.5 150.8 108.5 151.3 108.5 151.7 108.5 151.8 108.6 152 108.8 152.1 108.8 154.4 108.7 156.6 108.3 158.8 107.9 160.9 107.3 163.1 106.2 164.9 105.7 165.8 105.1 166.7 104.3 167.3 103.6 168 102.6 168.4 101.6 168.7 101.1 168.8 100.8 169.2 100.8 169.6 100.8 168.6 100.3 167.8 99.9 167.1 99.5 166.3 99.1 165.8 98.4 165.2S97.1 163.8 96.5 162.8 95.5 160.7 95.1 159.5C94.7 158.1 94.3 156.6 94.1 155.1 98 155.3 101.4 154.8 103.9 154.2 106.7 153.5 108.4 152.6 108.4 151.7 108.4 150.7 106.6 149.8 103.8 149.2S97.2 148.3 93.2 147.9C91.1 147.7 89.1 147.4 87.2 146.8 85.3 146.3 83.6 145.5 82 144.5 78.9 142.5 76.5 139.3 75.1 135.7 73.6 132 72.8 127.8 72.3 123.4 71.7 119.1 71.3 114.5 70.6 109.9 69.1 101 67.5 92.2 67.2 83.6V82.3H93.6C107.5 82.3 121.4 81.5 135.3 80 135.6 81.5 135.6 83 135.6 84.6" fill="#ffffff" data-fill-palette-color="quaternary"></path><path d="M107.8 131.3C107.2 130.9 106.3 130.7 105.4 130.7 104.4 130.7 103.5 130.8 102.9 130.9 102.2 131 101.9 131 101.8 131.1 101.8 131.3 101.7 131.3 101.6 131.4S101.3 131.6 101 131.6C100.4 131.7 100 131.4 99.9 131.3 99.9 131.3 99.8 131.3 99.8 131.2 99.8 131.2 99.8 131.1 99.7 131.1V130.9C99.7 130.8 99.6 130.7 99.6 130.6V130.3C99.6 130 99.5 129.7 100.1 129.3 101.1 128.6 103.3 128.2 104.3 130.5 104.4 130.6 104.8 130.7 105.2 130.7S106 130.6 106.1 130.4C106.5 128.8 105.9 126.6 104.3 125.3 102.7 123.9 100.6 123.4 98.4 123.8 97.9 123.9 97.3 124.1 96.8 124.3 96.3 124.6 95.7 124.9 95.3 125.2 94.8 125.6 94.4 126 94 126.6 93.6 127.1 93.3 127.7 93.1 128.2 92.9 128.8 92.7 129.4 92.7 129.9 92.6 130.5 92.6 131 92.7 131.6 92.7 131.9 92.7 132.2 92.8 132.5L93.1 133.4C93.3 134 93.6 134.6 93.9 135.1 94.8 136.4 96.1 137.5 97.4 138 98.8 138.5 100.2 138.8 101.6 138.6S104.4 138 105.7 137C106.9 136.1 107.9 134.7 108.3 133.2 108.7 132.4 108.4 131.7 107.8 131.3" fill="#ffffff" data-fill-palette-color="quaternary"></path></g></svg></g></svg></g></svg></g></svg></g><g></g></svg></g><defs></defs></svg><rect width="326.51044543219933" height="247.2" fill="none" stroke="none" visibility="hidden"></rect></g></svg></g></svg>