<svg xmlns="http://www.w3.org/2000/svg" version="1.1" xmlns:xlink="http://www.w3.org/1999/xlink" xmlns:svgjs="http://svgjs.dev/svgjs" width="2000" height="1500" viewBox="0 0 2000 1500"><rect width="2000" height="1500" fill="#ffffff"></rect><g transform="matrix(0.346860908775581,0,0,0.346860908775581,651.8837470249241,248.38709677419354)"><svg viewBox="0 0 172 248" data-background-color="#ffffff" preserveAspectRatio="xMidYMid meet" height="2883" width="2000" xmlns="http://www.w3.org/2000/svg" xmlns:xlink="http://www.w3.org/1999/xlink"><g id="tight-bounds" transform="matrix(1,0,0,1,0.31124753013438067,0.4000000000000057)"><svg viewBox="0 0 171.3775049397312 247.2" height="247.2" width="171.3775049397312"><g><svg viewBox="0 0 395.52 570.5097879350265" height="247.2" width="171.3775049397312"><g transform="matrix(1,0,0,1,0,426.8926754289908)"><svg viewBox="0 0 395.52 143.6171125060357" height="143.6171125060357" width="395.52"><g id="textblocktransform"><svg viewBox="0 0 395.52 143.6171125060357" height="143.6171125060357" width="395.52" id="textblock"><g><svg viewBox="0 0 395.52 143.6171125060357" height="143.6171125060357" width="395.52"><g transform="matrix(1,0,0,1,0,0)"><svg width="395.52" viewBox="0.5 -37 107.04 37.6" height="143.6171125060357" data-palette-color="url(#4db2941b-ebe2-4bbb-811f-2fee346272b2)"><g class="wordmark-text-0" data-fill-palette-color="primary" id="text-0"></g></svg></g></svg></g></svg></g></svg></g><g transform="matrix(1,0,0,1,1.265939011492037,0)"><svg viewBox="0 0 392.9881219770159 392.9881219770159" height="392.9881219770159" width="392.9881219770159"><g><svg></svg></g><g id="icon-0"><svg viewBox="0 0 392.9881219770159 392.9881219770159" height="392.9881219770159" width="392.9881219770159"><g><path transform="scale(3.92988,3.92988)" d="M30 100c-16.569 0-30-13.431-30-30v-40c0-16.569 13.431-30 30-30h40c16.569 0 30 13.431 30 30v40c0 16.569-13.431 30-30 30z" fill="#5258c4" fill-rule="nonzero" stroke="none" stroke-width="1" stroke-linecap="butt" stroke-linejoin="miter" stroke-miterlimit="10" stroke-dasharray="" stroke-dashoffset="0" font-family="none" font-weight="none" font-size="none" text-anchor="none" style="mix-blend-mode: normal" data-fill-palette-color="accent"></path></g><g transform="matrix(1,0,0,1,78.59762439540317,78.59762439540317)"><svg viewBox="0 0 235.79287318620956 235.79287318620956" height="235.79287318620956" width="235.79287318620956"><g><svg xmlns="http://www.w3.org/2000/svg" xmlns:xlink="http://www.w3.org/1999/xlink" version="1.1" x="0" y="0" viewBox="6.98 6.497 82.422 82.422" enable-background="new 0 0 95 95" xml:space="preserve" height="235.79287318620956" width="235.79287318620956" class="icon-dxe-0" data-fill-palette-color="quaternary" id="dxe-0"><path d="M48.191 6.497C25.431 6.497 6.98 24.948 6.98 47.708 6.98 70.469 25.431 88.919 48.191 88.919 70.952 88.919 89.402 70.468 89.402 47.708S70.952 6.497 48.191 6.497M30.532 20.79L41.75 37.483 41.756 37.479 48.785 47.287 46.284 51.038 46.093 50.734 45.95 50.83 41.334 50.757C41.334 50.756 20.95 21.026 30.532 20.79M64.951 75.034C63.907 75.734 62.058 75.954 61.425 75.101L61.421 75.103 61.38 75.04 61.377 75.035 61.375 75.031 49.484 56.128 52.013 51.791 66.347 71.792 66.342 71.795C66.895 72.705 65.991 74.334 64.951 75.034M62.568 39.227C59.255 44.232 56.463 43.321 56.463 43.321L56.27 43.2 37.649 75.14C37.648 75.142 37.648 75.144 37.646 75.144 37.645 75.146 37.645 75.148 37.643 75.148L37.607 75.208 37.604 75.206C37.04 76.023 35.306 75.876 34.31 75.254 33.316 74.633 32.422 73.141 32.909 72.275L32.905 72.273 53.462 41.448 53.27 41.328S51.223 39.218 54.264 34.044C57.307 28.87 63.673 20.778 63.673 20.778L63.968 20.963 55.844 34.43C55.659 34.725 55.776 35.132 56.106 35.337 56.432 35.542 56.85 35.468 57.035 35.172L65.768 22.085 65.992 22.225 58.073 35.819C57.887 36.115 58.004 36.522 58.332 36.727 58.661 36.932 59.078 36.859 59.263 36.562L67.995 23.476 68.261 23.642 60.34 37.235C60.155 37.532 60.273 37.938 60.601 38.142 60.929 38.348 61.345 38.274 61.531 37.977L70.06 24.763 70.355 24.947C70.352 24.947 65.88 34.221 62.568 39.227" fill="#ffffff" data-fill-palette-color="quaternary"></path></svg></g></svg></g></svg></g></svg></g><g></g></svg></g><defs></defs><mask id="136ed84b-7a12-4865-9c84-5d32dd584396"><g id="SvgjsG4754"><svg viewBox="0 0 171.3775049397312 247.2" height="247.2" width="171.3775049397312"><g><svg viewBox="0 0 395.52 570.5097879350265" height="247.2" width="171.3775049397312"><g transform="matrix(1,0,0,1,0,426.8926754289908)"><svg viewBox="0 0 395.52 143.6171125060357" height="143.6171125060357" width="395.52"><g id="SvgjsG4753"><svg viewBox="0 0 395.52 143.6171125060357" height="143.6171125060357" width="395.52" id="SvgjsSvg4752"><g><svg viewBox="0 0 395.52 143.6171125060357" height="143.6171125060357" width="395.52"><g transform="matrix(1,0,0,1,0,0)"><svg width="395.52" viewBox="0.5 -37 107.04 37.6" height="143.6171125060357" data-palette-color="url(#4db2941b-ebe2-4bbb-811f-2fee346272b2)"><g class="wordmark-text-0" data-fill-palette-color="primary" id="SvgjsG4751"><path d="M17.4 0L12.65 0 12.65-13.3 0.5-33.05 4.5-35.45 15.2-17.7 25.7-35.25 29.45-33.05 17.4-13.3 17.4 0ZM47.9 0.6L47.9 0.6Q43.35 0.6 39.85-1.58 36.35-3.75 34.4-7.78 32.45-11.8 32.45-17.35L32.45-17.35Q32.45-22.7 34.42-26.83 36.4-30.95 40.02-33.27 43.65-35.6 48.5-35.6L48.5-35.6Q51-35.6 53.05-35.13 55.1-34.65 56.9-33.8L56.9-33.8 55.45-29.8Q53.9-30.55 52.27-31 50.65-31.45 48.45-31.45L48.45-31.45Q45.25-31.45 42.72-29.8 40.2-28.15 38.75-25.05 37.3-21.95 37.3-17.55L37.3-17.55Q37.3-13.35 38.72-10.2 40.15-7.05 42.67-5.3 45.2-3.55 48.45-3.55L48.45-3.55Q50.9-3.55 52.7-4.15 54.5-4.75 56.2-5.7L56.2-5.7 57.65-1.75Q55.8-0.75 53.42-0.08 51.05 0.6 47.9 0.6ZM73.6 0.6L73.6 0.6Q70.35 0.6 67.7-1.05 65.05-2.7 63.47-5.73 61.9-8.75 61.9-12.85L61.9-12.85Q61.9-16.75 63.47-19.85 65.05-22.95 67.82-24.78 70.6-26.6 74.2-26.6L74.2-26.6Q76.45-26.6 78.27-25.83 80.1-25.05 81.45-23.9L81.45-23.9 81.45-26 85.55-26 85.55-6.3Q85.55-4.4 86.47-3.83 87.4-3.25 88.5-3.25L88.5-3.25 87.55 0.25Q82.75 0.25 81.75-3.65L81.75-3.65Q80.6-2.05 78.62-0.73 76.65 0.6 73.6 0.6ZM74.6-3.4L74.6-3.4Q76.5-3.4 78.2-4.33 79.9-5.25 81.05-6.65L81.05-6.65 81.05-20.6Q79.7-21.55 78.07-22.13 76.45-22.7 74.65-22.7L74.65-22.7Q72.25-22.7 70.42-21.48 68.6-20.25 67.55-18.07 66.5-15.9 66.5-13L66.5-13Q66.5-10.2 67.55-8.03 68.6-5.85 70.45-4.63 72.3-3.4 74.6-3.4ZM102.39 0.6L102.39 0.6Q100.09 0.6 98.24-0.28 96.39-1.15 95.32-3.1 94.24-5.05 94.24-8.15L94.24-8.15 94.24-37 98.74-37 98.74-8.6Q98.74-5.9 99.87-4.6 100.99-3.3 102.99-3.3L102.99-3.3Q103.94-3.3 104.87-3.53 105.79-3.75 106.44-4.05L106.44-4.05 107.54-0.4Q106.64 0 105.32 0.3 103.99 0.6 102.39 0.6Z" fill="white"></path></g></svg></g></svg></g></svg></g></svg></g><g transform="matrix(1,0,0,1,1.265939011492037,0)"><svg viewBox="0 0 392.9881219770159 392.9881219770159" height="392.9881219770159" width="392.9881219770159"><g><svg></svg></g><g id="SvgjsG4750"><svg viewBox="0 0 392.9881219770159 392.9881219770159" height="392.9881219770159" width="392.9881219770159"><g><path transform="scale(3.92988,3.92988)" d="M30 100c-16.569 0-30-13.431-30-30v-40c0-16.569 13.431-30 30-30h40c16.569 0 30 13.431 30 30v40c0 16.569-13.431 30-30 30z" fill="black" fill-rule="nonzero" stroke="none" stroke-width="1" stroke-linecap="butt" stroke-linejoin="miter" stroke-miterlimit="10" stroke-dasharray="" stroke-dashoffset="0" font-family="none" font-weight="none" font-size="none" text-anchor="none" style="mix-blend-mode: normal"></path></g><g transform="matrix(1,0,0,1,78.59762439540317,78.59762439540317)"><svg viewBox="0 0 235.79287318620956 235.79287318620956" height="235.79287318620956" width="235.79287318620956"><g><svg xmlns="http://www.w3.org/2000/svg" xmlns:xlink="http://www.w3.org/1999/xlink" version="1.1" x="0" y="0" viewBox="6.98 6.497 82.422 82.422" enable-background="new 0 0 95 95" xml:space="preserve" height="235.79287318620956" width="235.79287318620956" class="icon-dxe-0" data-fill-palette-color="quaternary" id="SvgjsSvg4749"><path d="M48.191 6.497C25.431 6.497 6.98 24.948 6.98 47.708 6.98 70.469 25.431 88.919 48.191 88.919 70.952 88.919 89.402 70.468 89.402 47.708S70.952 6.497 48.191 6.497M30.532 20.79L41.75 37.483 41.756 37.479 48.785 47.287 46.284 51.038 46.093 50.734 45.95 50.83 41.334 50.757C41.334 50.756 20.95 21.026 30.532 20.79M64.951 75.034C63.907 75.734 62.058 75.954 61.425 75.101L61.421 75.103 61.38 75.04 61.377 75.035 61.375 75.031 49.484 56.128 52.013 51.791 66.347 71.792 66.342 71.795C66.895 72.705 65.991 74.334 64.951 75.034M62.568 39.227C59.255 44.232 56.463 43.321 56.463 43.321L56.27 43.2 37.649 75.14C37.648 75.142 37.648 75.144 37.646 75.144 37.645 75.146 37.645 75.148 37.643 75.148L37.607 75.208 37.604 75.206C37.04 76.023 35.306 75.876 34.31 75.254 33.316 74.633 32.422 73.141 32.909 72.275L32.905 72.273 53.462 41.448 53.27 41.328S51.223 39.218 54.264 34.044C57.307 28.87 63.673 20.778 63.673 20.778L63.968 20.963 55.844 34.43C55.659 34.725 55.776 35.132 56.106 35.337 56.432 35.542 56.85 35.468 57.035 35.172L65.768 22.085 65.992 22.225 58.073 35.819C57.887 36.115 58.004 36.522 58.332 36.727 58.661 36.932 59.078 36.859 59.263 36.562L67.995 23.476 68.261 23.642 60.34 37.235C60.155 37.532 60.273 37.938 60.601 38.142 60.929 38.348 61.345 38.274 61.531 37.977L70.06 24.763 70.355 24.947C70.352 24.947 65.88 34.221 62.568 39.227" fill="black"></path></svg></g></svg></g></svg></g></svg></g><g></g></svg></g><defs><mask></mask></defs></svg><rect width="171.3775049397312" height="247.2" fill="black" stroke="none" visibility="hidden"></rect></g></mask><linearGradient x1="0" x2="1" y1="0.578" y2="0.595" id="4db2941b-ebe2-4bbb-811f-2fee346272b2"><stop stop-color="#6ee2f5" offset="0"></stop><stop stop-color="#6454f0" offset="1"></stop></linearGradient><rect width="171.3775049397312" height="247.2" fill="url(#4db2941b-ebe2-4bbb-811f-2fee346272b2)" mask="url(#136ed84b-7a12-4865-9c84-5d32dd584396)" data-fill-palette-color="primary"></rect></svg><rect width="171.3775049397312" height="247.2" fill="none" stroke="none" visibility="hidden"></rect></g></svg></g></svg>